<?xml version="1.0" encoding="UTF-8" standalone="no"?><!DOCTYPE svg PUBLIC "-//W3C//DTD SVG 1.1//EN" "http://www.w3.org/Graphics/SVG/1.1/DTD/svg11.dtd"><svg width="100%" height="100%" viewBox="0 0 12095 6048" version="1.1" xmlns="http://www.w3.org/2000/svg" xmlns:xlink="http://www.w3.org/1999/xlink" xml:space="preserve" xmlns:serif="http://www.serif.com/" style="fill-rule:evenodd;clip-rule:evenodd;stroke-linejoin:round;stroke-miterlimit:2;"><path d="M11503.937,-0c156.624,-0 306.833,62.219 417.583,172.968c110.75,110.75 172.968,260.959 172.968,417.583l0,4866.142c0,156.624 -62.219,306.833 -172.968,417.583c-110.75,110.75 -260.959,172.968 -417.583,172.968c-2052.303,-0 -8861.083,-0 -10913.386,-0c-156.624,0 -306.833,-62.219 -417.583,-172.968c-110.75,-110.75 -172.968,-260.959 -172.968,-417.583l0,-4866.142c-0,-156.624 62.219,-306.833 172.968,-417.583c110.75,-110.75 260.959,-172.968 417.583,-172.968l10913.386,0Z" style="fill:#121212;"/><g><path d="M3764.669,4450.433c-49.469,0 -97.863,-8.603 -145.181,-25.81c-118.296,-46.243 -193.038,-130.126 -224.225,-251.648c-6.453,-34.413 -9.679,-68.289 -9.679,-101.627c0,-95.712 32.8,-240.356 98.401,-433.931c31.187,-93.561 57.535,-188.736 79.043,-285.523l8.066,-45.168c-1.075,11.83 -1.613,18.282 -1.613,19.358c0,1.075 -0.538,1.613 -1.613,1.613c0,-6.453 1.075,-15.056 3.226,-25.81l4.839,-72.591l-1.613,-19.358c1.075,3.226 1.613,6.721 1.613,10.485c0,3.764 0.538,7.797 1.613,12.098c-4.302,-7.528 -6.453,-17.744 -6.453,-30.649l-1.613,-9.679c1.075,0 1.882,0.538 2.42,1.613c0.538,1.075 1.075,2.689 1.613,4.839c0.538,2.151 1.344,4.571 2.42,7.259c1.075,2.689 1.613,4.571 1.613,5.646l-1.613,1.613l-8.066,-16.131c1.075,0 2.151,0.807 3.226,2.42c1.075,1.613 2.957,4.033 5.646,7.259c2.689,3.226 4.302,5.377 4.839,6.453c0.538,1.075 0.807,2.151 0.807,3.226l-1.613,-1.613c-1.075,0 -2.957,-1.613 -5.646,-4.839c-2.689,-3.226 -4.033,-5.377 -4.033,-6.453l1.613,0c3.226,3.226 6.99,5.915 11.292,8.066l6.453,8.066c-1.075,0 -3.764,-1.613 -8.066,-4.839l-22.584,-11.292l24.197,12.905l0,-1.613c-4.302,-4.302 -11.292,-6.453 -20.971,-6.453l12.905,3.226l-29.036,-3.226c-4.302,1.075 -9.141,1.613 -14.518,1.613l25.81,0c0,-1.075 -1.613,-1.613 -4.839,-1.613c-4.302,0 -8.872,0.538 -13.712,1.613c-4.839,1.075 -7.797,1.613 -8.872,1.613l0,-1.613l27.423,-11.292c1.075,0 1.613,0.538 1.613,1.613c0,1.075 -2.42,2.957 -7.259,5.646c-4.839,2.689 -7.797,4.571 -8.872,5.646l-1.613,0c3.226,-2.151 5.108,-3.495 5.646,-4.033c0.538,-0.538 2.689,-1.882 6.453,-4.033c3.764,-2.151 7.259,-4.839 10.485,-8.066l-58.073,51.62c-41.941,43.017 -99.476,107.542 -172.605,193.575l-22.584,29.036c8.603,-10.754 14.249,-17.744 16.938,-20.971c2.689,-3.226 4.033,-5.377 4.033,-6.453l-17.744,24.197c-74.204,92.486 -145.719,185.51 -214.546,279.071c-177.444,235.517 -305.956,394.678 -385.537,477.486c-112.919,118.296 -225.3,177.444 -337.144,177.444c-124.748,-10.754 -214.008,-73.128 -267.779,-187.123c-21.508,-53.771 -32.263,-106.466 -32.263,-158.086l0,-54.846c2.151,-60.223 24.735,-197.877 67.751,-412.961c78.506,-388.226 183.359,-752.793 314.56,-1093.7c68.827,-178.519 152.709,-348.973 251.648,-511.361c50.545,-84.958 111.037,-159.968 181.477,-225.031c70.44,-65.063 156.742,-102.971 258.907,-113.725l17.744,0c94.637,0 176.906,32.8 246.808,98.401c75.279,70.978 113.994,167.228 116.145,288.75c-2.151,96.788 -18.82,190.887 -50.007,282.297c-69.902,230.139 -179.595,450.062 -329.078,659.769c-200.028,274.232 -442.535,502.758 -727.52,685.579c-25.81,15.056 -51.62,22.584 -77.43,22.584c-62.374,0 -112.381,-29.036 -150.021,-87.109c-13.98,-24.735 -20.971,-50.007 -20.971,-75.817c0,-62.374 28.499,-112.381 85.496,-150.021l91.948,-61.299c6.453,-5.377 13.443,-10.216 20.971,-14.518c2.151,-2.151 3.764,-4.033 4.839,-5.646c1.075,-1.613 3.226,-3.495 6.453,-5.646c-2.151,0 -8.066,4.839 -17.744,14.518c7.528,-6.453 16.131,-12.905 25.81,-19.358c5.377,-3.226 10.216,-6.99 14.518,-11.292c119.371,-92.486 229.602,-194.651 330.691,-306.494l25.81,-33.876c15.056,-19.358 30.649,-37.102 46.781,-53.233l-16.131,16.131c2.151,0 11.83,-10.216 29.036,-30.649l30.649,-41.941c91.411,-122.598 168.303,-252.186 230.677,-388.764l8.066,-20.971l-9.679,25.81c2.151,-6.453 6.453,-16.131 12.905,-29.036c20.433,-47.318 38.446,-95.174 54.04,-143.568c15.594,-48.394 28.23,-97.325 37.908,-146.795l9.679,-35.489l0,4.839c-2.151,4.302 -3.226,8.066 -3.226,11.292l-1.613,4.839l1.613,-16.131c2.151,-12.905 3.226,-32.8 3.226,-59.686l-1.613,-16.131l1.613,19.358c1.075,-1.075 1.613,-2.689 1.613,-4.839c0,-6.453 -3.226,-16.131 -9.679,-29.036c0,-4.302 -0.538,-6.99 -1.613,-8.066l0,-1.613c1.075,0 1.613,0.538 1.613,1.613c0,1.075 0.269,2.957 0.807,5.646c0.538,2.689 1.613,5.915 3.226,9.679c1.613,3.764 2.42,6.184 2.42,7.259c-7.528,-15.056 -11.292,-22.584 -11.292,-22.584l-3.226,-9.679c1.075,0 1.613,1.075 1.613,3.226c8.603,8.603 13.174,13.443 13.712,14.518c0.538,1.075 0.807,2.151 0.807,3.226l-1.613,0l-4.839,-4.839c-10.754,-8.603 -16.131,-14.518 -16.131,-17.744c7.528,4.302 11.292,6.453 11.292,6.453l9.679,9.679c-11.83,-5.377 -17.744,-8.066 -17.744,-8.066l-16.131,-11.292l4.839,0c2.151,1.075 5.108,2.42 8.872,4.033c3.764,1.613 6.721,2.957 8.872,4.033l3.226,3.226l-12.905,-1.613c-10.754,-3.226 -16.131,-5.377 -16.131,-6.453l14.518,0l12.905,3.226c-1.075,1.075 -8.334,1.613 -21.777,1.613c-13.443,0 -20.164,0.538 -20.164,1.613c0,1.075 2.689,1.613 8.066,1.613c4.302,0 10.754,-1.613 19.358,-4.839l-32.263,6.453l0,-1.613c2.151,0 5.915,-1.344 11.292,-4.033c5.377,-2.689 9.141,-4.033 11.292,-4.033l0,1.613l-33.876,17.744c0,1.075 -0.807,1.882 -2.42,2.42c-1.613,0.538 -2.957,1.075 -4.033,1.613c-1.075,0.538 -4.302,2.957 -9.679,7.259l17.744,-12.905l-37.102,32.263c-16.131,21.508 -27.423,33.876 -33.876,37.102l16.131,-14.518l-1.613,0c-5.377,0 -13.443,9.679 -24.197,29.036c-46.243,65.601 -88.722,133.89 -127.437,204.867c-38.715,70.978 -72.053,138.729 -100.014,203.254l8.066,-20.971l0,3.226l-6.453,16.131c-178.519,428.016 -311.334,895.823 -398.442,1403.421l-17.744,108.08c0,-7.528 1.075,-13.443 3.226,-17.744l-1.613,16.131c-2.151,20.433 -3.226,40.866 -3.226,61.299c0,7.528 0.538,12.367 1.613,14.518c0,3.226 -0.538,5.915 -1.613,8.066l-1.613,-20.971l1.613,8.066c1.075,6.453 2.151,11.023 3.226,13.712c1.075,2.689 1.613,4.571 1.613,5.646l-1.613,3.226c-3.226,-3.226 -5.108,-6.453 -5.646,-9.679c-0.538,-3.226 -0.807,-6.99 -0.807,-11.292l4.839,6.453c2.151,4.302 4.033,7.797 5.646,10.485c1.613,2.689 2.42,5.108 2.42,7.259c-9.679,-12.905 -14.518,-19.895 -14.518,-20.971l19.358,20.971l1.613,-1.613c0,-6.453 -6.99,-11.292 -20.971,-14.518c5.377,4.302 10.754,7.528 16.131,9.679c-17.207,-6.453 -25.81,-10.216 -25.81,-11.292l9.679,3.226c-17.207,-4.302 -28.499,-6.453 -33.876,-6.453l1.613,0c1.075,1.075 2.689,1.882 4.839,2.42c2.151,0.538 6.99,0.807 14.518,0.807c-4.302,2.151 -10.216,3.226 -17.744,3.226l-11.292,1.613l30.649,-9.679l-32.263,9.679l9.679,0c25.81,-12.905 41.941,-22.584 48.394,-29.036l1.613,0l-16.131,11.292c-2.151,1.075 -3.226,2.151 -3.226,3.226l0,-1.613l8.066,-4.839c20.433,-17.207 40.328,-34.951 59.686,-53.233c69.902,-70.978 117.221,-124.211 141.955,-159.7c2.151,-3.226 3.764,-5.377 4.839,-6.453c1.075,-1.075 4.302,-4.302 9.679,-9.679l-16.131,17.744l106.466,-135.503l93.561,-124.211c88.184,-121.522 190.887,-253.261 308.107,-395.216c76.355,-95.712 147.601,-171.26 213.739,-226.644c66.138,-55.384 143.837,-83.076 233.097,-83.076c97.863,0 182.283,34.951 253.261,104.853c61.299,72.053 91.948,154.86 91.948,248.422l-3.226,93.561c-3.226,74.204 -37.102,210.244 -101.627,408.121c-32.263,95.712 -59.148,193.038 -80.656,291.976l-4.839,27.423l3.226,-22.584c1.075,1.075 1.613,3.764 1.613,8.066c-3.226,16.131 -4.839,31.187 -4.839,45.168l1.613,20.971l-3.226,-22.584c1.075,4.302 1.882,8.872 2.42,13.712c0.538,4.839 2.957,13.712 7.259,26.617l-6.453,-19.358l9.679,17.744c-2.151,-3.226 -4.571,-6.453 -7.259,-9.679c-2.689,-3.226 -5.108,-6.99 -7.259,-11.292l17.744,19.358l-19.358,-16.131c4.302,3.226 8.334,5.915 12.098,8.066c3.764,2.151 6.99,4.033 9.679,5.646c2.689,1.613 5.646,2.957 8.872,4.033l-24.197,-12.905c0,2.151 5.377,4.839 16.131,8.066l27.423,6.453l-25.81,-1.613l0,-1.613c29.036,0 44.092,-0.538 45.168,-1.613c0,-1.075 -1.613,-1.613 -4.839,-1.613c-4.302,0 -11.292,1.613 -20.971,4.839c5.377,-1.075 11.83,-1.882 19.358,-2.42c7.528,-0.538 36.027,-9.41 85.496,-26.617l-19.358,8.066c4.302,-3.226 6.99,-4.839 8.066,-4.839c1.075,0 4.839,-1.613 11.292,-4.839c15.056,-6.453 35.489,-17.207 61.299,-32.263c7.528,-7.528 13.98,-11.292 19.358,-11.292l-16.131,12.905l0,-1.613l6.453,-6.453c49.469,-43.017 96.788,-88.722 141.955,-137.116l58.073,-67.751c-10.754,8.603 -16.131,13.98 -16.131,16.131c2.151,0 5.915,-3.764 11.292,-11.292c47.318,-61.299 88.722,-124.748 124.211,-190.349c1.075,-3.226 2.957,-8.066 5.646,-14.518c2.689,-6.453 5.646,-13.712 8.872,-21.777c3.226,-8.066 6.453,-12.636 9.679,-13.712l-9.679,22.584c2.151,-4.302 3.495,-7.797 4.033,-10.485c0.538,-2.689 1.344,-4.839 2.42,-6.453c1.075,-1.613 1.613,-3.495 1.613,-5.646l12.905,-30.649c32.263,-78.506 86.571,-117.758 162.926,-117.758c63.45,0 110.768,27.961 141.955,83.883c15.056,25.81 22.584,52.158 22.584,79.043c0,15.056 -2.689,30.649 -8.066,46.781c-86.033,237.667 -234.441,444.685 -445.223,621.054c-73.128,60.223 -158.624,105.929 -256.487,137.116c-47.318,15.056 -94.099,22.584 -140.342,22.584Z" style="fill:#fff;fill-rule:nonzero;"/><path d="M4987.42,4389.134c-208.631,0 -380.698,-50.545 -516.201,-151.634c-147.332,-106.466 -220.998,-257.025 -220.998,-451.676c0,-30.112 5.108,-80.387 15.325,-150.827c10.216,-70.44 39.522,-157.28 87.915,-260.52c74.204,-173.142 183.896,-318.861 329.078,-437.157c122.598,-100.014 255.412,-150.021 398.442,-150.021c82.807,0 163.464,18.282 241.969,54.846c137.654,74.204 206.48,194.651 206.48,361.34c0,89.26 -25.272,173.68 -75.817,253.261c-60.223,88.184 -136.04,155.398 -227.451,201.641c-121.522,61.299 -251.11,91.948 -388.764,91.948c-161.313,0 -302.192,-41.941 -422.639,-125.824c-51.62,-39.79 -77.43,-86.033 -77.43,-138.729c0,-27.961 7.528,-58.073 22.584,-90.335c31.187,-53.771 79.581,-80.656 145.181,-80.656c29.036,0 56.997,8.066 83.883,24.197c25.81,20.433 46.781,33.338 62.912,38.715l-3.226,-1.613c20.433,13.98 60.761,25.81 120.985,35.489l11.292,3.226l-3.226,-1.613c-7.528,0 -12.367,-0.538 -14.518,-1.613l-4.839,0c13.98,0 26.348,1.075 37.102,3.226c18.282,1.075 37.102,1.613 56.459,1.613c19.358,0 38.715,-1.075 58.073,-3.226l4.839,0l9.679,-1.613c23.659,-4.302 64.525,-15.594 122.598,-33.876l-17.744,4.839c9.679,0 32.263,-10.754 67.751,-32.263c10.754,-10.754 18.82,-16.131 24.197,-16.131l-17.744,12.905c23.659,-18.282 40.866,-33.876 51.62,-46.781l12.905,-12.905c-1.075,1.075 -2.151,2.689 -3.226,4.839c-1.075,2.151 -1.882,3.495 -2.42,4.033c-0.538,0.538 -2.957,3.495 -7.259,8.872l4.839,-9.679c7.528,-10.754 14.518,-22.046 20.971,-33.876c1.075,0 1.882,-0.807 2.42,-2.42c0.538,-1.613 1.075,-2.957 1.613,-4.033c0.538,-1.075 2.42,-4.839 5.646,-11.292l-6.453,19.358l9.679,-35.489c0,-5.377 1.613,-11.292 4.839,-17.744l-3.226,25.81c0,-8.603 0.538,-15.594 1.613,-20.971c0,-24.735 0.538,-37.64 1.613,-38.715l3.226,6.453l0,14.518l-1.613,0c0,-4.302 -1.613,-9.679 -4.839,-16.131c0,-7.528 -2.151,-17.207 -6.453,-29.036c2.151,7.528 4.839,14.518 8.066,20.971c-1.075,-1.075 -2.689,-3.495 -4.839,-7.259c-2.151,-3.764 -3.764,-7.259 -4.839,-10.485c-1.075,-3.226 -2.42,-6.184 -4.033,-8.872c-1.613,-2.689 -2.42,-4.571 -2.42,-5.646c0,1.075 1.075,3.226 3.226,6.453c2.151,3.226 4.033,6.184 5.646,8.872c1.613,2.689 2.957,4.033 4.033,4.033l-1.613,-3.226c-2.151,-1.075 -4.302,-2.957 -6.453,-5.646c-2.151,-2.689 -3.764,-4.571 -4.839,-5.646c-1.075,-1.075 -4.302,-3.764 -9.679,-8.066c11.83,8.603 17.744,13.443 17.744,14.518l-25.81,-17.744c-6.453,-2.151 -12.905,-5.377 -19.358,-9.679l22.584,12.905l-9.679,-6.453c-24.735,-6.453 -37.371,-9.948 -37.908,-10.485c-0.538,-0.538 -4.033,-1.344 -10.485,-2.42l24.197,3.226c-7.528,0 -13.98,-0.538 -19.358,-1.613l-32.263,-1.613c-10.754,0 -23.659,1.075 -38.715,3.226l24.197,-3.226c-25.81,4.302 -55.384,11.83 -88.722,22.584c5.377,-2.151 9.948,-3.764 13.712,-4.839c3.764,-1.075 6.184,-2.151 7.259,-3.226c-3.226,5.377 -13.443,10.754 -30.649,16.131l-16.131,6.453c-36.564,21.508 -56.459,33.876 -59.686,37.102l-1.613,0l16.131,-11.292l0,1.613c-1.075,1.075 -3.495,2.957 -7.259,5.646c-3.764,2.689 -7.528,5.915 -11.292,9.679c-3.764,3.764 -7.797,7.259 -12.098,10.485c-35.489,30.112 -67.751,62.374 -96.788,96.788c-5.377,7.528 -8.066,12.367 -8.066,14.518l3.226,-4.839c2.151,-2.151 5.377,-7.528 9.679,-16.131c-5.377,10.754 -12.367,20.971 -20.971,30.649c-12.905,16.131 -29.036,39.253 -48.394,69.364c-32.263,52.695 -52.695,91.411 -61.299,116.145c-7.528,9.679 -11.292,17.207 -11.292,22.584l-1.613,0l9.679,-19.358c-2.151,2.151 -9.679,21.508 -22.584,58.073c-20.433,55.922 -33.338,101.627 -38.715,137.116l-4.839,16.131l0,4.839l-1.613,0l3.226,-12.905l-4.839,61.299c0,20.433 0.538,32.531 1.613,36.295c1.075,3.764 1.613,7.797 1.613,12.098l0,3.226c-1.075,0 -1.613,-3.764 -1.613,-11.292c0,2.151 0.269,4.571 0.807,7.259c0.538,2.689 1.344,6.453 2.42,11.292c1.075,4.839 2.42,10.485 4.033,16.938c1.613,6.453 3.495,12.636 5.646,18.551c2.151,5.915 3.226,9.41 3.226,10.485l-9.679,-24.197l4.839,12.905c7.528,15.056 16.669,30.649 27.423,46.781l4.839,11.292l1.613,0c0,-1.075 -0.538,-1.613 -1.613,-1.613c-5.377,-5.377 -8.334,-8.603 -8.872,-9.679c-0.538,-1.075 -1.882,-3.764 -4.033,-8.066l6.453,6.453c4.302,4.302 7.528,8.603 9.679,12.905l43.554,41.941l-1.613,-1.613c-2.151,0 -7.528,-4.302 -16.131,-12.905c1.075,0 6.453,3.226 16.131,9.679c5.377,5.377 22.046,16.131 50.007,32.263c5.377,2.151 10.216,4.839 14.518,8.066c10.754,3.226 16.131,5.915 16.131,8.066l-22.584,-9.679l0,-1.613c1.075,1.075 3.495,2.151 7.259,3.226c3.764,1.075 6.721,2.151 8.872,3.226c10.754,4.302 22.046,8.066 33.876,11.292c41.941,13.98 72.591,20.971 91.948,20.971l-27.423,-1.613c7.528,0 14.518,0.538 20.971,1.613c51.62,5.377 88.722,8.066 111.306,8.066c58.073,0 93.561,-1.075 106.466,-3.226l19.358,-3.226l-3.226,1.613l-22.584,1.613l8.066,-1.613c63.45,-7.528 136.578,-25.272 219.385,-53.233c2.151,-1.075 5.108,-2.151 8.872,-3.226c3.764,-1.075 6.184,-2.151 7.259,-3.226c-10.754,5.377 -17.207,8.066 -19.358,8.066l-3.226,1.613l14.518,-6.453c32.263,-12.905 63.987,-28.499 95.174,-46.781c50.545,-29.036 80.119,-47.856 88.722,-56.459l1.613,0l-19.358,14.518c0,-2.151 7.528,-8.066 22.584,-17.744l35.489,-30.649c49.469,-44.092 83.883,-80.119 103.24,-108.08l-16.131,17.744l22.584,-25.81c34.413,-47.318 61.299,-92.486 80.656,-135.503c5.377,-12.905 9.679,-20.971 12.905,-24.197c1.075,-4.302 2.151,-6.99 3.226,-8.066l-6.453,12.905c15.056,-41.941 41.404,-75.279 79.043,-100.014c25.81,-13.98 52.695,-20.971 80.656,-20.971c15.056,0 30.649,2.151 46.781,6.453c44.092,11.83 76.892,38.177 98.401,79.043c15.056,27.961 22.584,55.922 22.584,83.883c0,15.056 -2.689,29.574 -8.066,43.554c-80.656,207.556 -211.32,374.245 -391.99,500.069c-202.179,140.88 -427.479,211.32 -675.9,211.32Z" style="fill:#fff;fill-rule:nonzero;"/><path d="M6419.876,4402.039c-203.254,0 -366.718,-70.978 -490.391,-212.933c-82.807,-94.637 -134.965,-203.792 -156.473,-327.465c-11.83,-72.053 -17.744,-144.106 -17.744,-216.159c0,-130.126 28.499,-311.334 85.496,-543.624c83.883,-340.908 207.018,-672.136 369.406,-993.686c104.316,-205.405 217.772,-350.049 340.37,-433.931c76.355,-51.62 160.237,-77.43 251.648,-77.43c143.031,0 254.336,63.987 333.917,191.962c49.469,78.506 74.204,161.313 74.204,248.422c0,5.377 -0.807,32.531 -2.42,81.463c-1.613,48.932 -20.164,118.834 -55.653,209.707c-35.489,90.873 -74.742,175.562 -117.758,254.068c-232.29,418.338 -559.217,739.35 -980.781,963.037c-27.961,15.056 -55.384,22.584 -82.269,22.584c-60.223,0 -107.542,-29.036 -141.955,-87.109c-15.056,-24.735 -22.584,-50.545 -22.584,-77.43c0,-65.601 28.499,-113.994 85.496,-145.181c44.092,-24.735 87.647,-50.007 130.663,-75.817c74.204,-46.243 117.221,-75.279 129.05,-87.109c1.075,0 2.689,-0.807 4.839,-2.42c2.151,-1.613 4.839,-3.495 8.066,-5.646l0,-1.613l-8.066,6.453l-9.679,8.066l40.328,-30.649c127.975,-101.089 238.205,-207.018 330.691,-317.786l29.036,-33.876c-7.528,8.603 -11.83,13.443 -12.905,14.518c-1.075,1.075 -1.613,2.151 -1.613,3.226l12.905,-16.131c97.863,-130.126 178.519,-259.176 241.969,-387.15l37.102,-75.817c-3.226,3.226 -4.839,6.99 -4.839,11.292l-4.839,8.066l9.679,-22.584c18.282,-44.092 32.263,-88.184 41.941,-132.276l9.679,-40.328l-4.839,20.971c2.151,-17.207 3.495,-26.617 4.033,-28.23c0.538,-1.613 0.807,-4.571 0.807,-8.872l0,-22.584c1.075,-13.98 0.538,-22.046 -1.613,-24.197l3.226,20.971c0,-5.377 -0.538,-9.679 -1.613,-12.905c-1.075,-3.226 -2.151,-6.453 -3.226,-9.679l-9.679,-38.715l1.613,1.613c0,9.679 2.151,16.669 6.453,20.971c-2.151,-3.226 -4.302,-6.99 -6.453,-11.292l-19.358,-37.102l-1.613,0l-4.839,-8.066c1.075,0 1.882,0.807 2.42,2.42c0.538,1.613 1.344,2.957 2.42,4.033c1.075,1.075 4.302,5.377 9.679,12.905c-1.075,0 -2.151,-1.075 -3.226,-3.226l-14.518,-12.905c-4.302,-3.226 -7.528,-6.99 -9.679,-11.292l-3.226,-4.839c1.075,0 1.882,0.538 2.42,1.613c0.538,1.075 2.689,3.226 6.453,6.453c3.764,3.226 6.184,5.377 7.259,6.453l1.613,0l-8.066,-6.453c-5.377,-4.302 -8.872,-6.721 -10.485,-7.259c-1.613,-0.538 -3.764,-1.075 -6.453,-1.613c-2.689,-0.538 -5.646,-2.42 -8.872,-5.646c-2.151,0 -3.226,-0.538 -3.226,-1.613c15.056,6.453 23.121,9.948 24.197,10.485c1.075,0.538 1.613,1.344 1.613,2.42l-8.066,-4.839l-4.839,-1.613l-20.971,-4.839l4.839,1.613c4.302,1.075 8.066,1.613 11.292,1.613l6.453,1.613l-29.036,0c2.151,-2.151 8.066,-3.226 17.744,-3.226c-2.151,0 -5.646,0.538 -10.485,1.613c-4.839,1.075 -8.872,2.151 -12.098,3.226c-3.226,1.075 -5.108,1.613 -5.646,1.613c-0.538,0 -7.797,2.151 -21.777,6.453l20.971,-8.066c-3.226,2.151 -6.184,3.495 -8.872,4.033c-2.689,0.538 -4.571,1.344 -5.646,2.42c-11.83,5.377 -22.584,11.292 -32.263,17.744l-1.613,1.613c-9.679,5.377 -15.056,8.334 -16.131,8.872c-1.075,0.538 -1.613,1.344 -1.613,2.42l17.744,-14.518c-6.453,6.453 -10.216,9.679 -11.292,9.679c-24.735,20.433 -47.318,41.941 -67.751,64.525c-1.075,2.151 -2.151,4.302 -3.226,6.453c-1.075,2.151 -4.302,5.915 -9.679,11.292l6.453,-9.679c4.302,-5.377 7.528,-8.066 9.679,-8.066l-19.358,27.423c-73.128,100.014 -144.106,226.913 -212.933,380.698l-12.905,30.649l8.066,-17.744l-1.613,4.839l-16.131,37.102c-41.941,97.863 -72.591,174.218 -91.948,229.064c-86.033,235.517 -156.473,498.456 -211.32,788.819c-1.075,6.453 -1.613,14.518 -1.613,24.197l0,-9.679c1.075,-7.528 2.151,-12.367 3.226,-14.518l-4.839,37.102c-2.151,24.735 -3.226,50.007 -3.226,75.817l3.226,82.269c0,27.961 0.538,42.479 1.613,43.554l0,4.839c-1.075,-2.151 -1.613,-6.453 -1.613,-12.905l0,-1.613c0,32.263 11.83,84.42 35.489,156.473l6.453,17.744c-5.377,-16.131 -8.066,-24.735 -8.066,-25.81l-1.613,0l1.613,1.613c0,1.075 0.269,2.689 0.807,4.839c0.538,2.151 1.075,3.764 1.613,4.839c0.538,1.075 1.344,2.151 2.42,3.226c15.056,33.338 25.81,53.233 32.263,59.686l0,1.613l-4.839,-8.066c-4.302,-2.151 -6.453,-5.377 -6.453,-9.679c0,1.075 1.075,2.689 3.226,4.839c12.905,17.207 27.423,32.8 43.554,46.781l17.744,16.131l-20.971,-17.744c0,1.075 1.344,2.689 4.033,4.839c2.689,2.151 5.646,4.033 8.872,5.646c3.226,1.613 5.377,2.957 6.453,4.033c17.207,11.83 35.489,22.584 54.846,32.263l12.905,6.453l-22.584,-9.679l-3.226,-1.613c1.075,0 4.302,1.344 9.679,4.033c5.377,2.689 13.443,5.646 24.197,8.872c32.263,9.679 55.384,15.056 69.364,16.131l14.518,0l-6.453,0l-22.584,-1.613l29.036,0l83.883,1.613l16.131,0l-4.839,1.613c-2.151,0 -6.453,0.538 -12.905,1.613l-3.226,0l3.226,0c11.83,-1.075 36.027,-6.99 72.591,-17.744c8.603,-2.151 17.744,-4.839 27.423,-8.066l24.197,-9.679l-24.197,11.292c92.486,-46.243 145.719,-76.355 159.7,-90.335l-11.292,8.066l3.226,-1.613c2.151,0 4.839,-1.613 8.066,-4.839l8.066,-6.453c55.922,-45.168 95.174,-83.345 117.758,-114.532c1.075,-2.151 -0.538,0 -4.839,6.453l4.839,-8.066c88.184,-138.729 143.568,-240.356 166.152,-304.881c16.131,-45.168 45.168,-77.968 87.109,-98.401c26.885,-12.905 54.846,-19.358 83.883,-19.358c13.98,0 27.961,1.613 41.941,4.839c46.243,12.905 79.043,39.253 98.401,79.043c12.905,27.961 19.358,56.459 19.358,85.496c0,48.394 -16.669,111.306 -50.007,188.736c-44.092,101.089 -122.329,210.782 -234.71,329.078c-112.381,118.296 -242.238,204.867 -389.57,259.713c-79.581,30.112 -161.313,45.168 -245.195,45.168Z" style="fill:#fff;fill-rule:nonzero;"/><path d="M7665.211,4402.039c-203.254,0 -366.718,-70.978 -490.391,-212.933c-82.807,-94.637 -134.965,-203.792 -156.473,-327.465c-11.83,-72.053 -17.744,-144.106 -17.744,-216.159c0,-130.126 28.499,-311.334 85.496,-543.624c83.883,-340.908 207.018,-672.136 369.406,-993.686c104.316,-205.405 217.772,-350.049 340.37,-433.931c76.355,-51.62 160.237,-77.43 251.648,-77.43c143.031,0 254.336,63.987 333.917,191.962c49.469,78.506 74.204,161.313 74.204,248.422c0,5.377 -0.807,32.531 -2.42,81.463c-1.613,48.932 -20.164,118.834 -55.653,209.707c-35.489,90.873 -74.742,175.562 -117.758,254.068c-232.29,418.338 -559.217,739.35 -980.781,963.037c-27.961,15.056 -55.384,22.584 -82.269,22.584c-60.223,0 -107.542,-29.036 -141.955,-87.109c-15.056,-24.735 -22.584,-50.545 -22.584,-77.43c0,-65.601 28.499,-113.994 85.496,-145.181c44.092,-24.735 87.647,-50.007 130.663,-75.817c74.204,-46.243 117.221,-75.279 129.05,-87.109c1.075,0 2.689,-0.807 4.839,-2.42c2.151,-1.613 4.839,-3.495 8.066,-5.646l0,-1.613l-8.066,6.453l-9.679,8.066l40.328,-30.649c127.975,-101.089 238.205,-207.018 330.691,-317.786l29.036,-33.876c-7.528,8.603 -11.83,13.443 -12.905,14.518c-1.075,1.075 -1.613,2.151 -1.613,3.226l12.905,-16.131c97.863,-130.126 178.519,-259.176 241.969,-387.15l37.102,-75.817c-3.226,3.226 -4.839,6.99 -4.839,11.292l-4.839,8.066l9.679,-22.584c18.282,-44.092 32.263,-88.184 41.941,-132.276l9.679,-40.328l-4.839,20.971c2.151,-17.207 3.495,-26.617 4.033,-28.23c0.538,-1.613 0.807,-4.571 0.807,-8.872l0,-22.584c1.075,-13.98 0.538,-22.046 -1.613,-24.197l3.226,20.971c0,-5.377 -0.538,-9.679 -1.613,-12.905c-1.075,-3.226 -2.151,-6.453 -3.226,-9.679l-9.679,-38.715l1.613,1.613c0,9.679 2.151,16.669 6.453,20.971c-2.151,-3.226 -4.302,-6.99 -6.453,-11.292l-19.358,-37.102l-1.613,0l-4.839,-8.066c1.075,0 1.882,0.807 2.42,2.42c0.538,1.613 1.344,2.957 2.42,4.033c1.075,1.075 4.302,5.377 9.679,12.905c-1.075,0 -2.151,-1.075 -3.226,-3.226l-14.518,-12.905c-4.302,-3.226 -7.528,-6.99 -9.679,-11.292l-3.226,-4.839c1.075,0 1.882,0.538 2.42,1.613c0.538,1.075 2.689,3.226 6.453,6.453c3.764,3.226 6.184,5.377 7.259,6.453l1.613,0l-8.066,-6.453c-5.377,-4.302 -8.872,-6.721 -10.485,-7.259c-1.613,-0.538 -3.764,-1.075 -6.453,-1.613c-2.689,-0.538 -5.646,-2.42 -8.872,-5.646c-2.151,0 -3.226,-0.538 -3.226,-1.613c15.056,6.453 23.121,9.948 24.197,10.485c1.075,0.538 1.613,1.344 1.613,2.42l-8.066,-4.839l-4.839,-1.613l-20.971,-4.839l4.839,1.613c4.302,1.075 8.066,1.613 11.292,1.613l6.453,1.613l-29.036,0c2.151,-2.151 8.066,-3.226 17.744,-3.226c-2.151,0 -5.646,0.538 -10.485,1.613c-4.839,1.075 -8.872,2.151 -12.098,3.226c-3.226,1.075 -5.108,1.613 -5.646,1.613c-0.538,0 -7.797,2.151 -21.777,6.453l20.971,-8.066c-3.226,2.151 -6.184,3.495 -8.872,4.033c-2.689,0.538 -4.571,1.344 -5.646,2.42c-11.83,5.377 -22.584,11.292 -32.263,17.744l-1.613,1.613c-9.679,5.377 -15.056,8.334 -16.131,8.872c-1.075,0.538 -1.613,1.344 -1.613,2.42l17.744,-14.518c-6.453,6.453 -10.216,9.679 -11.292,9.679c-24.735,20.433 -47.318,41.941 -67.751,64.525c-1.075,2.151 -2.151,4.302 -3.226,6.453c-1.075,2.151 -4.302,5.915 -9.679,11.292l6.453,-9.679c4.302,-5.377 7.528,-8.066 9.679,-8.066l-19.358,27.423c-73.128,100.014 -144.106,226.913 -212.933,380.698l-12.905,30.649l8.066,-17.744l-1.613,4.839l-16.131,37.102c-41.941,97.863 -72.591,174.218 -91.948,229.064c-86.033,235.517 -156.473,498.456 -211.32,788.819c-1.075,6.453 -1.613,14.518 -1.613,24.197l0,-9.679c1.075,-7.528 2.151,-12.367 3.226,-14.518l-4.839,37.102c-2.151,24.735 -3.226,50.007 -3.226,75.817l3.226,82.269c0,27.961 0.538,42.479 1.613,43.554l0,4.839c-1.075,-2.151 -1.613,-6.453 -1.613,-12.905l0,-1.613c0,32.263 11.83,84.42 35.489,156.473l6.453,17.744c-5.377,-16.131 -8.066,-24.735 -8.066,-25.81l-1.613,0l1.613,1.613c0,1.075 0.269,2.689 0.807,4.839c0.538,2.151 1.075,3.764 1.613,4.839c0.538,1.075 1.344,2.151 2.42,3.226c15.056,33.338 25.81,53.233 32.263,59.686l0,1.613l-4.839,-8.066c-4.302,-2.151 -6.453,-5.377 -6.453,-9.679c0,1.075 1.075,2.689 3.226,4.839c12.905,17.207 27.423,32.8 43.554,46.781l17.744,16.131l-20.971,-17.744c0,1.075 1.344,2.689 4.033,4.839c2.689,2.151 5.646,4.033 8.872,5.646c3.226,1.613 5.377,2.957 6.453,4.033c17.207,11.83 35.489,22.584 54.846,32.263l12.905,6.453l-22.584,-9.679l-3.226,-1.613c1.075,0 4.302,1.344 9.679,4.033c5.377,2.689 13.443,5.646 24.197,8.872c32.263,9.679 55.384,15.056 69.364,16.131l14.518,0l-6.453,0l-22.584,-1.613l29.036,0l83.883,1.613l16.131,0l-4.839,1.613c-2.151,0 -6.453,0.538 -12.905,1.613l-3.226,0l3.226,0c11.83,-1.075 36.027,-6.99 72.591,-17.744c8.603,-2.151 17.744,-4.839 27.423,-8.066l24.197,-9.679l-24.197,11.292c92.486,-46.243 145.719,-76.355 159.7,-90.335l-11.292,8.066l3.226,-1.613c2.151,0 4.839,-1.613 8.066,-4.839l8.066,-6.453c55.922,-45.168 95.174,-83.345 117.758,-114.532c1.075,-2.151 -0.538,0 -4.839,6.453l4.839,-8.066c88.184,-138.729 143.568,-240.356 166.152,-304.881c16.131,-45.168 45.168,-77.968 87.109,-98.401c26.885,-12.905 54.846,-19.358 83.883,-19.358c13.98,0 27.961,1.613 41.941,4.839c46.243,12.905 79.043,39.253 98.401,79.043c12.905,27.961 19.358,56.459 19.358,85.496c0,48.394 -16.669,111.306 -50.007,188.736c-44.092,101.089 -122.329,210.782 -234.71,329.078c-112.381,118.296 -242.238,204.867 -389.57,259.713c-79.581,30.112 -161.313,45.168 -245.195,45.168Z" style="fill:#fff;fill-rule:nonzero;"/><path d="M8741.166,4389.134c-36.564,0 -86.302,-5.646 -149.214,-16.938c-62.912,-11.292 -131.201,-44.899 -204.867,-100.82c-73.666,-55.922 -132.545,-125.286 -176.637,-208.093c-39.79,-73.128 -59.686,-152.172 -59.686,-237.13c0,-101.089 27.961,-198.415 83.883,-291.976c48.394,-79.581 114.532,-141.417 198.415,-185.51c26.885,-13.98 53.771,-20.971 80.656,-20.971c61.299,0 109.693,28.499 145.181,85.496c13.98,25.81 20.971,52.158 20.971,79.043c0,65.601 -28.499,114.532 -85.496,146.795l-27.423,16.131c-3.226,2.151 -5.915,4.033 -8.066,5.646c-2.151,1.613 -3.226,2.957 -3.226,4.033c0,-1.075 1.344,-2.42 4.033,-4.033c2.689,-1.613 7.797,-6.184 15.325,-13.712c-4.302,4.302 -9.41,8.872 -15.325,13.712c-5.915,4.839 -11.561,10.485 -16.938,16.938c-1.075,0 -2.151,1.075 -3.226,3.226l-14.518,16.131l0,-1.613l12.905,-16.131c-5.377,5.377 -8.066,9.679 -8.066,12.905c-16.131,22.584 -26.885,40.328 -32.263,53.233l11.292,-24.197c-5.377,8.603 -8.066,15.594 -8.066,20.971c-10.754,26.885 -16.131,48.932 -16.131,66.138l1.613,-6.453l0,-9.679c-1.075,2.151 -1.613,13.443 -1.613,33.876l0,32.263c-1.075,-1.075 -1.613,-5.377 -1.613,-12.905l-1.613,-8.066c1.075,0 1.613,0.269 1.613,0.807c0,0.538 0.807,3.226 2.42,8.066c1.613,4.839 2.957,11.292 4.033,19.358c1.075,8.066 3.226,16.4 6.453,25.003c0,1.075 0.269,2.957 0.807,5.646c0.538,2.689 2.42,5.646 5.646,8.872l0,3.226l-1.613,-3.226c-1.075,-1.075 -2.42,-4.033 -4.033,-8.872c-1.613,-4.839 -2.42,-7.797 -2.42,-8.872l0,-1.613l1.613,4.839c5.377,10.754 8.066,17.207 8.066,19.358c9.679,16.131 16.131,27.423 19.358,33.876c3.226,6.453 5.915,10.754 8.066,12.905l-4.839,-6.453c-5.377,-7.528 -8.066,-11.83 -8.066,-12.905l19.358,22.584c10.754,13.98 19.895,24.197 27.423,30.649c3.226,2.151 5.915,4.302 8.066,6.453c2.151,2.151 3.764,3.495 4.839,4.033c1.075,0.538 3.226,1.882 6.453,4.033c0,-1.075 -0.538,-1.882 -1.613,-2.42c-1.075,-0.538 -8.066,-5.108 -20.971,-13.712c34.413,22.584 62.912,40.328 85.496,53.233l-22.584,-12.905l19.358,8.066c11.83,6.453 35.489,12.905 70.978,19.358c-6.453,0 -11.83,-1.075 -16.131,-3.226l-9.679,0l4.839,-1.613l6.453,1.613l9.679,0c3.226,1.075 23.121,1.613 59.686,1.613c4.302,-1.075 10.754,-1.613 19.358,-1.613l-24.197,3.226c4.302,-1.075 7.528,-1.882 9.679,-2.42c2.151,-0.538 4.571,-0.807 7.259,-0.807c2.689,0 16.938,-3.226 42.748,-9.679c19.358,-7.528 34.951,-12.905 46.781,-16.131c-9.679,2.151 -15.594,3.764 -17.744,4.839l-3.226,1.613l0,1.613l9.679,-3.226l24.197,-12.905c15.056,-7.528 30.112,-16.131 45.168,-25.81l8.066,-4.839l0,-1.613c-9.679,6.453 -15.056,10.216 -16.131,11.292c-1.075,1.075 -1.613,2.151 -1.613,3.226l4.839,-6.453c10.754,-5.377 26.885,-18.82 48.394,-40.328c18.282,-23.659 30.112,-37.102 35.489,-40.328l-14.518,19.358l24.197,-35.489c25.81,-36.564 49.469,-79.581 70.978,-129.05l4.839,-9.679c0,3.226 -0.538,5.646 -1.613,7.259c-1.075,1.613 -3.226,5.646 -6.453,12.098c0,-3.226 4.302,-13.98 12.905,-32.263c17.207,-39.79 34.951,-89.26 53.233,-148.408c22.584,-67.751 33.876,-112.381 33.876,-133.89l6.453,-22.584c1.075,0 1.613,1.613 1.613,4.839l-6.453,14.518c3.226,-5.377 4.839,-12.367 4.839,-20.971l1.613,-66.138c0,-9.679 -0.538,-18.82 -1.613,-27.423l0,-17.744l1.613,4.839l0,16.131l-1.613,-12.905l-12.905,-54.846c-4.302,-7.528 -6.99,-15.056 -8.066,-22.584l9.679,22.584l-4.839,-8.066c-12.905,-30.112 -23.121,-48.932 -30.649,-56.459c-3.226,-9.679 -6.99,-14.518 -11.292,-14.518c0,5.377 5.377,11.83 16.131,19.358c-6.453,-5.377 -12.098,-11.292 -16.938,-17.744c-4.839,-6.453 -8.603,-11.292 -11.292,-14.518c-2.689,-3.226 -5.377,-5.646 -8.066,-7.259c-2.689,-1.613 -5.108,-4.033 -7.259,-7.259l19.358,19.358c1.075,0 1.613,-0.538 1.613,-1.613l-1.613,-3.226c-1.075,-1.075 -3.226,-2.42 -6.453,-4.033c-3.226,-1.613 -7.259,-4.302 -12.098,-8.066c-4.839,-3.764 -10.216,-7.797 -16.131,-12.098c-5.915,-4.302 -12.098,-6.453 -18.551,-6.453l4.839,0c1.075,1.075 4.033,2.689 8.872,4.839c4.839,2.151 8.066,3.226 9.679,3.226c1.613,0 2.42,0.538 2.42,1.613l0,-1.613c-1.075,0 -3.495,-0.269 -7.259,-0.807c-3.764,-0.538 -6.99,-1.344 -9.679,-2.42c-2.689,-1.075 -6.453,-2.42 -11.292,-4.033c-4.839,-1.613 -10.485,-2.957 -16.938,-4.033l12.905,1.613l-32.263,0l22.584,-1.613l-11.292,1.613l-9.679,3.226l14.518,-8.066l3.226,0l-3.226,1.613c-3.226,2.151 -7.259,4.302 -12.098,6.453c-4.839,2.151 -7.259,3.764 -7.259,4.839c0,1.075 1.075,1.613 3.226,1.613c6.453,0 11.83,-5.377 16.131,-16.131l-12.905,12.905l17.744,-22.584c-2.151,2.151 -4.033,4.571 -5.646,7.259c-1.613,2.689 -2.689,4.571 -3.226,5.646c-0.538,1.075 -1.344,2.151 -2.42,3.226c-1.075,1.075 -2.151,3.226 -3.226,6.453c-1.075,3.226 -2.689,5.915 -4.839,8.066c9.679,-10.754 14.518,-18.82 14.518,-24.197c0,-1.075 -0.538,-1.613 -1.613,-1.613c-2.151,0 -4.839,8.066 -8.066,24.197c-3.226,9.679 -4.839,15.594 -4.839,17.744l0,1.613l3.226,0c1.075,0 1.613,-4.839 1.613,-14.518l-1.613,-12.905c1.075,2.151 1.613,4.839 1.613,8.066c0,16.131 -0.538,27.961 -1.613,35.489l-3.226,-25.81c2.151,6.453 3.495,12.098 4.033,16.938c0.538,4.839 1.344,8.603 2.42,11.292c1.075,2.689 1.882,5.646 2.42,8.872c0.538,3.226 1.344,5.377 2.42,6.453c-1.075,-1.075 -2.151,-3.495 -3.226,-7.259c-1.075,-3.764 -1.882,-6.453 -2.42,-8.066c-0.538,-1.613 -1.344,-2.42 -2.42,-2.42l3.226,1.613l16.131,32.263c11.83,15.056 17.744,24.735 17.744,29.036l-12.905,-17.744c7.528,8.603 11.292,13.174 11.292,13.712c0,0.538 0.538,0.807 1.613,0.807l0,1.613c21.508,24.735 43.554,46.243 66.138,64.525c9.679,6.453 18.282,13.98 25.81,22.584c-8.603,-11.83 -14.518,-17.744 -17.744,-17.744l0,3.226c4.302,4.302 8.872,8.066 13.712,11.292c4.839,3.226 9.41,6.453 13.712,9.679c77.43,55.922 137.116,90.873 179.057,104.853l11.292,4.839c0,-1.075 -8.066,-4.302 -24.197,-9.679c4.302,1.075 10.754,3.764 19.358,8.066c52.695,18.282 97.325,31.725 133.89,40.328l29.036,4.839l6.453,1.613c-6.453,0 -11.023,-0.269 -13.712,-0.807c-2.689,-0.538 -4.571,-1.344 -5.646,-2.42l46.781,4.839c40.866,0 72.053,-0.538 93.561,-1.613l-17.744,1.613c16.131,0 41.941,-5.915 77.43,-17.744c5.377,-1.075 9.948,-2.42 13.712,-4.033c3.764,-1.613 7.797,-2.957 12.098,-4.033c4.302,-1.075 6.453,-2.151 6.453,-3.226c0,-1.075 -0.538,-1.613 -1.613,-1.613c-5.377,0 -11.83,3.764 -19.358,11.292c7.528,-5.377 17.207,-10.216 29.036,-14.518l16.131,-8.066c26.885,-12.905 53.233,-19.358 79.043,-19.358c62.374,0 111.306,28.499 146.795,85.496c13.98,25.81 20.971,52.158 20.971,79.043c0,64.525 -28.499,113.457 -85.496,146.795c-104.316,54.846 -219.385,82.269 -345.209,82.269c-170.991,0 -340.908,-52.158 -509.748,-156.473c-216.159,-127.975 -338.219,-281.222 -366.18,-459.741c-2.151,-18.282 -3.226,-36.564 -3.226,-54.846c0,-77.43 22.584,-149.483 67.751,-216.159c75.279,-90.335 165.614,-135.503 271.005,-135.503c6.453,0 40.328,1.613 101.627,4.839c61.299,3.226 134.427,47.318 219.385,132.276c105.391,110.768 158.086,252.186 158.086,424.252c0,112.919 -26.885,241.431 -80.656,385.537c-30.112,88.184 -67.751,172.605 -112.919,253.261c-98.938,173.142 -243.582,287.137 -433.931,341.983c-51.62,12.905 -103.778,19.358 -156.473,19.358Z" style="fill:#fff;fill-rule:nonzero;"/></g><g><path d="M3853.215,4395.084c-47.55,0 -94.067,-8.27 -139.55,-24.809c-113.707,-44.449 -185.549,-125.078 -215.527,-241.886c-6.202,-33.078 -9.303,-65.64 -9.303,-97.685c0,-91.999 31.528,-231.032 94.584,-417.098c29.977,-89.932 55.303,-181.414 75.977,-274.448l7.753,-43.415c-1.034,11.371 -1.551,17.573 -1.551,18.607c0,1.034 -0.517,1.551 -1.551,1.551c0,-6.202 1.034,-14.472 3.101,-24.809l4.652,-69.775l-1.551,-18.607c1.034,3.101 1.551,6.461 1.551,10.079c0,3.618 0.517,7.494 1.551,11.629c-4.135,-7.236 -6.202,-17.056 -6.202,-29.46l-1.551,-9.303c1.034,0 1.809,0.517 2.326,1.551c0.517,1.034 1.034,2.584 1.551,4.652c0.517,2.067 1.292,4.393 2.326,6.977c1.034,2.584 1.551,4.393 1.551,5.427l-1.551,1.551l-7.753,-15.506c1.034,0 2.067,0.775 3.101,2.326c1.034,1.551 2.843,3.876 5.427,6.977c2.584,3.101 4.135,5.169 4.652,6.202c0.517,1.034 0.775,2.067 0.775,3.101l-1.551,-1.551c-1.034,0 -2.843,-1.551 -5.427,-4.652c-2.584,-3.101 -3.876,-5.169 -3.876,-6.202l1.551,0c3.101,3.101 6.719,5.685 10.854,7.753l6.202,7.753c-1.034,0 -3.618,-1.551 -7.753,-4.652l-21.708,-10.854l23.258,12.404l0,-1.551c-4.135,-4.135 -10.854,-6.202 -20.157,-6.202l12.404,3.101l-27.91,-3.101c-4.135,1.034 -8.786,1.551 -13.955,1.551l24.809,0c0,-1.034 -1.551,-1.551 -4.652,-1.551c-4.135,0 -8.528,0.517 -13.18,1.551c-4.652,1.034 -7.494,1.551 -8.528,1.551l0,-1.551l26.359,-10.854c1.034,0 1.551,0.517 1.551,1.551c0,1.034 -2.326,2.843 -6.977,5.427c-4.652,2.584 -7.494,4.393 -8.528,5.427l-1.551,0c3.101,-2.067 4.91,-3.36 5.427,-3.876c0.517,-0.517 2.584,-1.809 6.202,-3.876c3.618,-2.067 6.977,-4.652 10.079,-7.753l-55.82,49.618c-40.314,41.348 -95.617,103.37 -165.909,186.066l-21.708,27.91c8.27,-10.337 13.697,-17.056 16.281,-20.157c2.584,-3.101 3.876,-5.169 3.876,-6.202l-17.056,23.258c-71.325,88.898 -140.066,178.313 -206.223,268.245c-170.561,226.38 -294.088,379.368 -370.582,458.963c-108.539,113.707 -216.56,170.561 -324.065,170.561c-119.909,-10.337 -205.706,-70.292 -257.391,-179.864c-20.674,-51.685 -31.011,-102.336 -31.011,-151.954l0,-52.719c2.067,-57.887 23.775,-190.201 65.123,-396.941c75.46,-373.166 176.246,-723.59 302.357,-1051.273c66.157,-171.594 146.785,-335.436 241.886,-491.525c48.584,-81.662 106.73,-153.763 174.437,-216.302c67.707,-62.539 150.662,-98.977 248.863,-109.314l17.056,0c90.966,0 170.044,31.528 237.234,94.584c72.359,68.224 109.572,160.74 111.64,277.549c-2.067,93.033 -18.09,183.482 -48.067,271.346c-67.191,221.212 -172.628,432.604 -316.312,634.175c-192.268,263.594 -425.368,483.255 -699.298,658.984c-24.809,14.472 -49.618,21.708 -74.426,21.708c-59.955,0 -108.022,-27.91 -144.201,-83.73c-13.438,-23.775 -20.157,-48.067 -20.157,-72.876c0,-59.955 27.393,-108.022 82.179,-144.201l88.381,-58.921c6.202,-5.169 12.921,-9.82 20.157,-13.955c2.067,-2.067 3.618,-3.876 4.652,-5.427c1.034,-1.551 3.101,-3.36 6.202,-5.427c-2.067,0 -7.753,4.652 -17.056,13.955c7.236,-6.202 15.506,-12.404 24.809,-18.607c5.169,-3.101 9.82,-6.719 13.955,-10.854c114.741,-88.898 220.695,-187.1 317.863,-294.605l24.809,-32.562c14.472,-18.607 29.46,-35.663 44.966,-51.168l-15.506,15.506c2.067,0 11.371,-9.82 27.91,-29.46l29.46,-40.314c87.865,-117.842 161.774,-242.403 221.729,-373.683l7.753,-20.157l-9.303,24.809c2.067,-6.202 6.202,-15.506 12.404,-27.91c19.64,-45.483 36.955,-91.483 51.943,-137.999c14.989,-46.517 27.135,-93.55 36.438,-141.1l9.303,-34.112l0,4.652c-2.067,4.135 -3.101,7.753 -3.101,10.854l-1.551,4.652l1.551,-15.506c2.067,-12.404 3.101,-31.528 3.101,-57.37l-1.551,-15.506l1.551,18.607c1.034,-1.034 1.551,-2.584 1.551,-4.652c0,-6.202 -3.101,-15.506 -9.303,-27.91c0,-4.135 -0.517,-6.719 -1.551,-7.753l0,-1.551c1.034,0 1.551,0.517 1.551,1.551c0,1.034 0.258,2.843 0.775,5.427c0.517,2.584 1.551,5.685 3.101,9.303c1.551,3.618 2.326,5.944 2.326,6.977c-7.236,-14.472 -10.854,-21.708 -10.854,-21.708l-3.101,-9.303c1.034,0 1.551,1.034 1.551,3.101c8.27,8.27 12.663,12.921 13.18,13.955c0.517,1.034 0.775,2.067 0.775,3.101l-1.551,0l-4.652,-4.652c-10.337,-8.27 -15.506,-13.955 -15.506,-17.056c7.236,4.135 10.854,6.202 10.854,6.202l9.303,9.303c-11.371,-5.169 -17.056,-7.753 -17.056,-7.753l-15.506,-10.854l4.652,0c2.067,1.034 4.91,2.326 8.528,3.876c3.618,1.551 6.461,2.843 8.528,3.876l3.101,3.101l-12.404,-1.551c-10.337,-3.101 -15.506,-5.169 -15.506,-6.202l13.955,0l12.404,3.101c-1.034,1.034 -8.011,1.551 -20.932,1.551c-12.921,0 -19.382,0.517 -19.382,1.551c0,1.034 2.584,1.551 7.753,1.551c4.135,0 10.337,-1.551 18.607,-4.652l-31.011,6.202l0,-1.551c2.067,0 5.685,-1.292 10.854,-3.876c5.169,-2.584 8.786,-3.876 10.854,-3.876l0,1.551l-32.562,17.056c0,1.034 -0.775,1.809 -2.326,2.326c-1.551,0.517 -2.843,1.034 -3.876,1.551c-1.034,0.517 -4.135,2.843 -9.303,6.977l17.056,-12.404l-35.663,31.011c-15.506,20.674 -26.359,32.562 -32.562,35.663l15.506,-13.955l-1.551,0c-5.169,0 -12.921,9.303 -23.258,27.91c-44.449,63.056 -85.28,128.696 -122.494,196.92c-37.213,68.224 -69.258,133.347 -96.134,195.369l7.753,-20.157l0,3.101l-6.202,15.506c-171.594,411.413 -299.256,861.073 -382.986,1348.979l-17.056,103.887c0,-7.236 1.034,-12.921 3.101,-17.056l-1.551,15.506c-2.067,19.64 -3.101,39.281 -3.101,58.921c0,7.236 0.517,11.888 1.551,13.955c0,3.101 -0.517,5.685 -1.551,7.753l-1.551,-20.157l1.551,7.753c1.034,6.202 2.067,10.595 3.101,13.18c1.034,2.584 1.551,4.393 1.551,5.427l-1.551,3.101c-3.101,-3.101 -4.91,-6.202 -5.427,-9.303c-0.517,-3.101 -0.775,-6.719 -0.775,-10.854l4.652,6.202c2.067,4.135 3.876,7.494 5.427,10.079c1.551,2.584 2.326,4.91 2.326,6.977c-9.303,-12.404 -13.955,-19.123 -13.955,-20.157l18.607,20.157l1.551,-1.551c0,-6.202 -6.719,-10.854 -20.157,-13.955c5.169,4.135 10.337,7.236 15.506,9.303c-16.539,-6.202 -24.809,-9.82 -24.809,-10.854l9.303,3.101c-16.539,-4.135 -27.393,-6.202 -32.562,-6.202l1.551,0c1.034,1.034 2.584,1.809 4.652,2.326c2.067,0.517 6.719,0.775 13.955,0.775c-4.135,2.067 -9.82,3.101 -17.056,3.101l-10.854,1.551l29.46,-9.303l-31.011,9.303l9.303,0c24.809,-12.404 40.314,-21.708 46.517,-27.91l1.551,0l-15.506,10.854c-2.067,1.034 -3.101,2.067 -3.101,3.101l0,-1.551l7.753,-4.652c19.64,-16.539 38.764,-33.595 57.37,-51.168c67.191,-68.224 112.673,-119.392 136.448,-153.505c2.067,-3.101 3.618,-5.169 4.652,-6.202c1.034,-1.034 4.135,-4.135 9.303,-9.303l-15.506,17.056l102.336,-130.246l89.932,-119.392c84.763,-116.808 183.482,-243.436 296.155,-379.885c73.393,-91.999 141.875,-164.617 205.448,-217.852c63.573,-53.236 138.257,-79.853 224.055,-79.853c94.067,0 175.212,33.595 243.436,100.786c58.921,69.258 88.381,148.853 88.381,238.785l-3.101,89.932c-3.101,71.325 -35.663,202.088 -97.685,392.289c-31.011,91.999 -56.854,185.549 -77.528,280.65l-4.652,26.359l3.101,-21.708c1.034,1.034 1.551,3.618 1.551,7.753c-3.101,15.506 -4.652,29.977 -4.652,43.415l1.551,20.157l-3.101,-21.708c1.034,4.135 1.809,8.528 2.326,13.18c0.517,4.652 2.843,13.18 6.977,25.584l-6.202,-18.607l9.303,17.056c-2.067,-3.101 -4.393,-6.202 -6.977,-9.303c-2.584,-3.101 -4.91,-6.719 -6.977,-10.854l17.056,18.607l-18.607,-15.506c4.135,3.101 8.011,5.685 11.629,7.753c3.618,2.067 6.719,3.876 9.303,5.427c2.584,1.551 5.427,2.843 8.528,3.876l-23.258,-12.404c0,2.067 5.169,4.652 15.506,7.753l26.359,6.202l-24.809,-1.551l0,-1.551c27.91,0 42.382,-0.517 43.415,-1.551c0,-1.034 -1.551,-1.551 -4.652,-1.551c-4.135,0 -10.854,1.551 -20.157,4.652c5.169,-1.034 11.371,-1.809 18.607,-2.326c7.236,-0.517 34.629,-9.045 82.179,-25.584l-18.607,7.753c4.135,-3.101 6.719,-4.652 7.753,-4.652c1.034,0 4.652,-1.551 10.854,-4.652c14.472,-6.202 34.112,-16.539 58.921,-31.011c7.236,-7.236 13.438,-10.854 18.607,-10.854l-15.506,12.404l0,-1.551l6.202,-6.202c47.55,-41.348 93.033,-85.28 136.448,-131.797l55.82,-65.123c-10.337,8.27 -15.506,13.438 -15.506,15.506c2.067,0 5.685,-3.618 10.854,-10.854c45.483,-58.921 85.28,-119.909 119.392,-182.965c1.034,-3.101 2.843,-7.753 5.427,-13.955c2.584,-6.202 5.427,-13.18 8.528,-20.932c3.101,-7.753 6.202,-12.146 9.303,-13.18l-9.303,21.708c2.067,-4.135 3.36,-7.494 3.876,-10.079c0.517,-2.584 1.292,-4.652 2.326,-6.202c1.034,-1.551 1.551,-3.36 1.551,-5.427l12.404,-29.46c31.011,-75.46 83.213,-113.19 156.606,-113.19c60.988,0 106.471,26.876 136.448,80.629c14.472,24.809 21.708,50.134 21.708,75.977c0,14.472 -2.584,29.46 -7.753,44.966c-82.696,228.448 -225.347,427.435 -427.952,596.962c-70.292,57.887 -152.471,101.82 -246.538,131.797c-45.483,14.472 -90.449,21.708 -134.898,21.708Z" style="fill:url(#_Linear1);fill-rule:nonzero;"/><path d="M5028.532,4336.163c-200.538,0 -365.93,-48.584 -496.176,-145.752c-141.617,-102.336 -212.425,-247.054 -212.425,-434.154c0,-28.944 4.91,-77.269 14.73,-144.977c9.82,-67.707 37.988,-151.179 84.505,-250.414c71.325,-166.426 176.763,-306.492 316.312,-420.199c117.842,-96.134 245.504,-144.201 382.986,-144.201c79.595,0 157.122,17.573 232.583,52.719c132.314,71.325 198.471,187.1 198.471,347.323c0,85.797 -24.292,166.943 -72.876,243.436c-57.887,84.763 -130.763,149.37 -218.628,193.819c-116.808,58.921 -241.369,88.381 -373.683,88.381c-155.055,0 -290.47,-40.314 -406.244,-120.943c-49.618,-38.247 -74.426,-82.696 -74.426,-133.347c0,-26.876 7.236,-55.82 21.708,-86.831c29.977,-51.685 76.494,-77.528 139.55,-77.528c27.91,0 54.786,7.753 80.629,23.258c24.809,19.64 44.966,32.045 60.471,37.213l-3.101,-1.551c19.64,13.438 58.404,24.809 116.291,34.112l10.854,3.101l-3.101,-1.551c-7.236,0 -11.888,-0.517 -13.955,-1.551l-4.652,0c13.438,0 25.326,1.034 35.663,3.101c17.573,1.034 35.663,1.551 54.269,1.551c18.607,0 37.213,-1.034 55.82,-3.101l4.652,0l9.303,-1.551c22.741,-4.135 62.022,-14.989 117.842,-32.562l-17.056,4.652c9.303,0 31.011,-10.337 65.123,-31.011c10.337,-10.337 18.09,-15.506 23.258,-15.506l-17.056,12.404c22.741,-17.573 39.281,-32.562 49.618,-44.966l12.404,-12.404c-1.034,1.034 -2.067,2.584 -3.101,4.652c-1.034,2.067 -1.809,3.36 -2.326,3.876c-0.517,0.517 -2.843,3.36 -6.977,8.528l4.652,-9.303c7.236,-10.337 13.955,-21.191 20.157,-32.562c1.034,0 1.809,-0.775 2.326,-2.326c0.517,-1.551 1.034,-2.843 1.551,-3.876c0.517,-1.034 2.326,-4.652 5.427,-10.854l-6.202,18.607l9.303,-34.112c0,-5.169 1.551,-10.854 4.652,-17.056l-3.101,24.809c0,-8.27 0.517,-14.989 1.551,-20.157c0,-23.775 0.517,-36.18 1.551,-37.213l3.101,6.202l0,13.955l-1.551,0c0,-4.135 -1.551,-9.303 -4.652,-15.506c0,-7.236 -2.067,-16.539 -6.202,-27.91c2.067,7.236 4.652,13.955 7.753,20.157c-1.034,-1.034 -2.584,-3.36 -4.652,-6.977c-2.067,-3.618 -3.618,-6.977 -4.652,-10.079c-1.034,-3.101 -2.326,-5.944 -3.876,-8.528c-1.551,-2.584 -2.326,-4.393 -2.326,-5.427c0,1.034 1.034,3.101 3.101,6.202c2.067,3.101 3.876,5.944 5.427,8.528c1.551,2.584 2.843,3.876 3.876,3.876l-1.551,-3.101c-2.067,-1.034 -4.135,-2.843 -6.202,-5.427c-2.067,-2.584 -3.618,-4.393 -4.652,-5.427c-1.034,-1.034 -4.135,-3.618 -9.303,-7.753c11.371,8.27 17.056,12.921 17.056,13.955l-24.809,-17.056c-6.202,-2.067 -12.404,-5.169 -18.607,-9.303l21.708,12.404l-9.303,-6.202c-23.775,-6.202 -35.921,-9.562 -36.438,-10.079c-0.517,-0.517 -3.876,-1.292 -10.079,-2.326l23.258,3.101c-7.236,0 -13.438,-0.517 -18.607,-1.551l-31.011,-1.551c-10.337,0 -22.741,1.034 -37.213,3.101l23.258,-3.101c-24.809,4.135 -53.236,11.371 -85.28,21.708c5.169,-2.067 9.562,-3.618 13.18,-4.652c3.618,-1.034 5.944,-2.067 6.977,-3.101c-3.101,5.169 -12.921,10.337 -29.46,15.506l-15.506,6.202c-35.146,20.674 -54.269,32.562 -57.37,35.663l-1.551,0l15.506,-10.854l0,1.551c-1.034,1.034 -3.36,2.843 -6.977,5.427c-3.618,2.584 -7.236,5.685 -10.854,9.303c-3.618,3.618 -7.494,6.977 -11.629,10.079c-34.112,28.944 -65.123,59.955 -93.033,93.033c-5.169,7.236 -7.753,11.888 -7.753,13.955l3.101,-4.652c2.067,-2.067 5.169,-7.236 9.303,-15.506c-5.169,10.337 -11.888,20.157 -20.157,29.46c-12.404,15.506 -27.91,37.73 -46.517,66.674c-31.011,50.651 -50.651,87.865 -58.921,111.64c-7.236,9.303 -10.854,16.539 -10.854,21.708l-1.551,0l9.303,-18.607c-2.067,2.067 -9.303,20.674 -21.708,55.82c-19.64,53.752 -32.045,97.685 -37.213,131.797l-4.652,15.506l0,4.652l-1.551,0l3.101,-12.404l-4.652,58.921c0,19.64 0.517,31.269 1.551,34.887c1.034,3.618 1.551,7.494 1.551,11.629l0,3.101c-1.034,0 -1.551,-3.618 -1.551,-10.854c0,2.067 0.258,4.393 0.775,6.977c0.517,2.584 1.292,6.202 2.326,10.854c1.034,4.652 2.326,10.079 3.876,16.281c1.551,6.202 3.36,12.146 5.427,17.831c2.067,5.685 3.101,9.045 3.101,10.079l-9.303,-23.258l4.652,12.404c7.236,14.472 16.022,29.46 26.359,44.966l4.652,10.854l1.551,0c0,-1.034 -0.517,-1.551 -1.551,-1.551c-5.169,-5.169 -8.011,-8.27 -8.528,-9.303c-0.517,-1.034 -1.809,-3.618 -3.876,-7.753l6.202,6.202c4.135,4.135 7.236,8.27 9.303,12.404l41.865,40.314l-1.551,-1.551c-2.067,0 -7.236,-4.135 -15.506,-12.404c1.034,0 6.202,3.101 15.506,9.303c5.169,5.169 21.191,15.506 48.067,31.011c5.169,2.067 9.82,4.652 13.955,7.753c10.337,3.101 15.506,5.685 15.506,7.753l-21.708,-9.303l0,-1.551c1.034,1.034 3.36,2.067 6.977,3.101c3.618,1.034 6.461,2.067 8.528,3.101c10.337,4.135 21.191,7.753 32.562,10.854c40.314,13.438 69.775,20.157 88.381,20.157l-26.359,-1.551c7.236,0 13.955,0.517 20.157,1.551c49.618,5.169 85.28,7.753 106.988,7.753c55.82,0 89.932,-1.034 102.336,-3.101l18.607,-3.101l-3.101,1.551l-21.708,1.551l7.753,-1.551c60.988,-7.236 131.28,-24.292 210.875,-51.168c2.067,-1.034 4.91,-2.067 8.528,-3.101c3.618,-1.034 5.944,-2.067 6.977,-3.101c-10.337,5.169 -16.539,7.753 -18.607,7.753l-3.101,1.551l13.955,-6.202c31.011,-12.404 61.505,-27.393 91.483,-44.966c48.584,-27.91 77.011,-46 85.28,-54.269l1.551,0l-18.607,13.955c0,-2.067 7.236,-7.753 21.708,-17.056l34.112,-29.46c47.55,-42.382 80.629,-77.011 99.235,-103.887l-15.506,17.056l21.708,-24.809c33.078,-45.483 58.921,-88.898 77.528,-130.246c5.169,-12.404 9.303,-20.157 12.404,-23.258c1.034,-4.135 2.067,-6.719 3.101,-7.753l-6.202,12.404c14.472,-40.314 39.797,-72.359 75.977,-96.134c24.809,-13.438 50.651,-20.157 77.528,-20.157c14.472,0 29.46,2.067 44.966,6.202c42.382,11.371 73.91,36.696 94.584,75.977c14.472,26.876 21.708,53.752 21.708,80.629c0,14.472 -2.584,28.427 -7.753,41.865c-77.528,199.504 -203.122,359.728 -376.784,480.671c-194.336,135.415 -410.896,203.122 -649.681,203.122Z" style="fill:url(#_Linear2);fill-rule:nonzero;"/><path d="M6405.421,4348.568c-195.369,0 -352.492,-68.224 -471.367,-204.673c-79.595,-90.966 -129.729,-195.886 -150.403,-314.762c-11.371,-69.258 -17.056,-138.516 -17.056,-207.774c0,-125.078 27.393,-299.256 82.179,-522.536c80.629,-327.683 198.987,-646.063 355.076,-955.139c100.269,-197.437 209.324,-336.47 327.166,-417.098c73.393,-49.618 154.021,-74.426 241.886,-74.426c137.482,0 244.47,61.505 320.964,184.516c47.55,75.46 71.325,155.055 71.325,238.785c0,5.169 -0.775,31.269 -2.326,78.303c-1.551,47.033 -19.382,114.224 -53.494,201.572c-34.112,87.348 -71.842,168.752 -113.19,244.212c-223.279,402.11 -537.524,710.669 -942.735,925.679c-26.876,14.472 -53.236,21.708 -79.078,21.708c-57.887,0 -103.37,-27.91 -136.448,-83.73c-14.472,-23.775 -21.708,-48.584 -21.708,-74.426c0,-63.056 27.393,-109.572 82.179,-139.55c42.382,-23.775 84.247,-48.067 125.595,-72.876c71.325,-44.449 112.673,-72.359 124.044,-83.73c1.034,0 2.584,-0.775 4.652,-2.326c2.067,-1.551 4.652,-3.36 7.753,-5.427l0,-1.551l-7.753,6.202l-9.303,7.753l38.764,-29.46c123.01,-97.168 228.965,-198.987 317.863,-305.459l27.91,-32.562c-7.236,8.27 -11.371,12.921 -12.404,13.955c-1.034,1.034 -1.551,2.067 -1.551,3.101l12.404,-15.506c94.067,-125.078 171.594,-249.122 232.583,-372.132l35.663,-72.876c-3.101,3.101 -4.652,6.719 -4.652,10.854l-4.652,7.753l9.303,-21.708c17.573,-42.382 31.011,-84.763 40.314,-127.145l9.303,-38.764l-4.652,20.157c2.067,-16.539 3.36,-25.584 3.876,-27.135c0.517,-1.551 0.775,-4.393 0.775,-8.528l0,-21.708c1.034,-13.438 0.517,-21.191 -1.551,-23.258l3.101,20.157c0,-5.169 -0.517,-9.303 -1.551,-12.404c-1.034,-3.101 -2.067,-6.202 -3.101,-9.303l-9.303,-37.213l1.551,1.551c0,9.303 2.067,16.022 6.202,20.157c-2.067,-3.101 -4.135,-6.719 -6.202,-10.854l-18.607,-35.663l-1.551,0l-4.652,-7.753c1.034,0 1.809,0.775 2.326,2.326c0.517,1.551 1.292,2.843 2.326,3.876c1.034,1.034 4.135,5.169 9.303,12.404c-1.034,0 -2.067,-1.034 -3.101,-3.101l-13.955,-12.404c-4.135,-3.101 -7.236,-6.719 -9.303,-10.854l-3.101,-4.652c1.034,0 1.809,0.517 2.326,1.551c0.517,1.034 2.584,3.101 6.202,6.202c3.618,3.101 5.944,5.169 6.977,6.202l1.551,0l-7.753,-6.202c-5.169,-4.135 -8.528,-6.461 -10.079,-6.977c-1.551,-0.517 -3.618,-1.034 -6.202,-1.551c-2.584,-0.517 -5.427,-2.326 -8.528,-5.427c-2.067,0 -3.101,-0.517 -3.101,-1.551c14.472,6.202 22.225,9.562 23.258,10.079c1.034,0.517 1.551,1.292 1.551,2.326l-7.753,-4.652l-4.652,-1.551l-20.157,-4.652l4.652,1.551c4.135,1.034 7.753,1.551 10.854,1.551l6.202,1.551l-27.91,0c2.067,-2.067 7.753,-3.101 17.056,-3.101c-2.067,0 -5.427,0.517 -10.079,1.551c-4.652,1.034 -8.528,2.067 -11.629,3.101c-3.101,1.034 -4.91,1.551 -5.427,1.551c-0.517,0 -7.494,2.067 -20.932,6.202l20.157,-7.753c-3.101,2.067 -5.944,3.36 -8.528,3.876c-2.584,0.517 -4.393,1.292 -5.427,2.326c-11.371,5.169 -21.708,10.854 -31.011,17.056l-1.551,1.551c-9.303,5.169 -14.472,8.011 -15.506,8.528c-1.034,0.517 -1.551,1.292 -1.551,2.326l17.056,-13.955c-6.202,6.202 -9.82,9.303 -10.854,9.303c-23.775,19.64 -45.483,40.314 -65.123,62.022c-1.034,2.067 -2.067,4.135 -3.101,6.202c-1.034,2.067 -4.135,5.685 -9.303,10.854l6.202,-9.303c4.135,-5.169 7.236,-7.753 9.303,-7.753l-18.607,26.359c-70.292,96.134 -138.516,218.111 -204.673,365.93l-12.404,29.46l7.753,-17.056l-1.551,4.652l-15.506,35.663c-40.314,94.067 -69.775,167.459 -88.381,220.178c-82.696,226.38 -150.403,479.12 -203.122,758.219c-1.034,6.202 -1.551,13.955 -1.551,23.258l0,-9.303c1.034,-7.236 2.067,-11.888 3.101,-13.955l-4.652,35.663c-2.067,23.775 -3.101,48.067 -3.101,72.876l3.101,79.078c0,26.876 0.517,40.831 1.551,41.865l0,4.652c-1.034,-2.067 -1.551,-6.202 -1.551,-12.404l0,-1.551c0,31.011 11.371,81.145 34.112,150.403l6.202,17.056c-5.169,-15.506 -7.753,-23.775 -7.753,-24.809l-1.551,0l1.551,1.551c0,1.034 0.258,2.584 0.775,4.652c0.517,2.067 1.034,3.618 1.551,4.652c0.517,1.034 1.292,2.067 2.326,3.101c14.472,32.045 24.809,51.168 31.011,57.37l0,1.551l-4.652,-7.753c-4.135,-2.067 -6.202,-5.169 -6.202,-9.303c0,1.034 1.034,2.584 3.101,4.652c12.404,16.539 26.359,31.528 41.865,44.966l17.056,15.506l-20.157,-17.056c0,1.034 1.292,2.584 3.876,4.652c2.584,2.067 5.427,3.876 8.528,5.427c3.101,1.551 5.169,2.843 6.202,3.876c16.539,11.371 34.112,21.708 52.719,31.011l12.404,6.202l-21.708,-9.303l-3.101,-1.551c1.034,0 4.135,1.292 9.303,3.876c5.169,2.584 12.921,5.427 23.258,8.528c31.011,9.303 53.236,14.472 66.674,15.506l13.955,0l-6.202,0l-21.708,-1.551l27.91,0l80.629,1.551l15.506,0l-4.652,1.551c-2.067,0 -6.202,0.517 -12.404,1.551l-3.101,0l3.101,0c11.371,-1.034 34.629,-6.719 69.775,-17.056c8.27,-2.067 17.056,-4.652 26.359,-7.753l23.258,-9.303l-23.258,10.854c88.898,-44.449 140.066,-73.393 153.505,-86.831l-10.854,7.753l3.101,-1.551c2.067,0 4.652,-1.551 7.753,-4.652l7.753,-6.202c53.752,-43.415 91.483,-80.112 113.19,-110.089c1.034,-2.067 -0.517,0 -4.652,6.202l4.652,-7.753c84.763,-133.347 137.999,-231.032 159.707,-293.054c15.506,-43.415 43.415,-74.943 83.73,-94.584c25.843,-12.404 52.719,-18.607 80.629,-18.607c13.438,0 26.876,1.551 40.314,4.652c44.449,12.404 75.977,37.73 94.584,75.977c12.404,26.876 18.607,54.269 18.607,82.179c0,46.517 -16.022,106.988 -48.067,181.414c-42.382,97.168 -117.583,202.605 -225.605,316.312c-108.022,113.707 -232.841,196.92 -374.458,249.639c-76.494,28.944 -155.055,43.415 -235.684,43.415Z" style="fill:url(#_Linear3);fill-rule:nonzero;"/><path d="M7602.447,4348.568c-195.369,0 -352.492,-68.224 -471.367,-204.673c-79.595,-90.966 -129.729,-195.886 -150.403,-314.762c-11.371,-69.258 -17.056,-138.516 -17.056,-207.774c0,-125.078 27.393,-299.256 82.179,-522.536c80.629,-327.683 198.987,-646.063 355.076,-955.139c100.269,-197.437 209.324,-336.47 327.166,-417.098c73.393,-49.618 154.021,-74.426 241.886,-74.426c137.482,0 244.47,61.505 320.964,184.516c47.55,75.46 71.325,155.055 71.325,238.785c0,5.169 -0.775,31.269 -2.326,78.303c-1.551,47.033 -19.382,114.224 -53.494,201.572c-34.112,87.348 -71.842,168.752 -113.19,244.212c-223.279,402.11 -537.524,710.669 -942.735,925.679c-26.876,14.472 -53.236,21.708 -79.078,21.708c-57.887,0 -103.37,-27.91 -136.448,-83.73c-14.472,-23.775 -21.708,-48.584 -21.708,-74.426c0,-63.056 27.393,-109.572 82.179,-139.55c42.382,-23.775 84.247,-48.067 125.595,-72.876c71.325,-44.449 112.673,-72.359 124.044,-83.73c1.034,0 2.584,-0.775 4.652,-2.326c2.067,-1.551 4.652,-3.36 7.753,-5.427l0,-1.551l-7.753,6.202l-9.303,7.753l38.764,-29.46c123.01,-97.168 228.965,-198.987 317.863,-305.459l27.91,-32.562c-7.236,8.27 -11.371,12.921 -12.404,13.955c-1.034,1.034 -1.551,2.067 -1.551,3.101l12.404,-15.506c94.067,-125.078 171.594,-249.122 232.583,-372.132l35.663,-72.876c-3.101,3.101 -4.652,6.719 -4.652,10.854l-4.652,7.753l9.303,-21.708c17.573,-42.382 31.011,-84.763 40.314,-127.145l9.303,-38.764l-4.652,20.157c2.067,-16.539 3.36,-25.584 3.876,-27.135c0.517,-1.551 0.775,-4.393 0.775,-8.528l0,-21.708c1.034,-13.438 0.517,-21.191 -1.551,-23.258l3.101,20.157c0,-5.169 -0.517,-9.303 -1.551,-12.404c-1.034,-3.101 -2.067,-6.202 -3.101,-9.303l-9.303,-37.213l1.551,1.551c0,9.303 2.067,16.022 6.202,20.157c-2.067,-3.101 -4.135,-6.719 -6.202,-10.854l-18.607,-35.663l-1.551,0l-4.652,-7.753c1.034,0 1.809,0.775 2.326,2.326c0.517,1.551 1.292,2.843 2.326,3.876c1.034,1.034 4.135,5.169 9.303,12.404c-1.034,0 -2.067,-1.034 -3.101,-3.101l-13.955,-12.404c-4.135,-3.101 -7.236,-6.719 -9.303,-10.854l-3.101,-4.652c1.034,0 1.809,0.517 2.326,1.551c0.517,1.034 2.584,3.101 6.202,6.202c3.618,3.101 5.944,5.169 6.977,6.202l1.551,0l-7.753,-6.202c-5.169,-4.135 -8.528,-6.461 -10.079,-6.977c-1.551,-0.517 -3.618,-1.034 -6.202,-1.551c-2.584,-0.517 -5.427,-2.326 -8.528,-5.427c-2.067,0 -3.101,-0.517 -3.101,-1.551c14.472,6.202 22.225,9.562 23.258,10.079c1.034,0.517 1.551,1.292 1.551,2.326l-7.753,-4.652l-4.652,-1.551l-20.157,-4.652l4.652,1.551c4.135,1.034 7.753,1.551 10.854,1.551l6.202,1.551l-27.91,0c2.067,-2.067 7.753,-3.101 17.056,-3.101c-2.067,0 -5.427,0.517 -10.079,1.551c-4.652,1.034 -8.528,2.067 -11.629,3.101c-3.101,1.034 -4.91,1.551 -5.427,1.551c-0.517,0 -7.494,2.067 -20.932,6.202l20.157,-7.753c-3.101,2.067 -5.944,3.36 -8.528,3.876c-2.584,0.517 -4.393,1.292 -5.427,2.326c-11.371,5.169 -21.708,10.854 -31.011,17.056l-1.551,1.551c-9.303,5.169 -14.472,8.011 -15.506,8.528c-1.034,0.517 -1.551,1.292 -1.551,2.326l17.056,-13.955c-6.202,6.202 -9.82,9.303 -10.854,9.303c-23.775,19.64 -45.483,40.314 -65.123,62.022c-1.034,2.067 -2.067,4.135 -3.101,6.202c-1.034,2.067 -4.135,5.685 -9.303,10.854l6.202,-9.303c4.135,-5.169 7.236,-7.753 9.303,-7.753l-18.607,26.359c-70.292,96.134 -138.516,218.111 -204.673,365.93l-12.404,29.46l7.753,-17.056l-1.551,4.652l-15.506,35.663c-40.314,94.067 -69.775,167.459 -88.381,220.178c-82.696,226.38 -150.403,479.12 -203.122,758.219c-1.034,6.202 -1.551,13.955 -1.551,23.258l0,-9.303c1.034,-7.236 2.067,-11.888 3.101,-13.955l-4.652,35.663c-2.067,23.775 -3.101,48.067 -3.101,72.876l3.101,79.078c0,26.876 0.517,40.831 1.551,41.865l0,4.652c-1.034,-2.067 -1.551,-6.202 -1.551,-12.404l0,-1.551c0,31.011 11.371,81.145 34.112,150.403l6.202,17.056c-5.169,-15.506 -7.753,-23.775 -7.753,-24.809l-1.551,0l1.551,1.551c0,1.034 0.258,2.584 0.775,4.652c0.517,2.067 1.034,3.618 1.551,4.652c0.517,1.034 1.292,2.067 2.326,3.101c14.472,32.045 24.809,51.168 31.011,57.37l0,1.551l-4.652,-7.753c-4.135,-2.067 -6.202,-5.169 -6.202,-9.303c0,1.034 1.034,2.584 3.101,4.652c12.404,16.539 26.359,31.528 41.865,44.966l17.056,15.506l-20.157,-17.056c0,1.034 1.292,2.584 3.876,4.652c2.584,2.067 5.427,3.876 8.528,5.427c3.101,1.551 5.169,2.843 6.202,3.876c16.539,11.371 34.112,21.708 52.719,31.011l12.404,6.202l-21.708,-9.303l-3.101,-1.551c1.034,0 4.135,1.292 9.303,3.876c5.169,2.584 12.921,5.427 23.258,8.528c31.011,9.303 53.236,14.472 66.674,15.506l13.955,0l-6.202,0l-21.708,-1.551l27.91,0l80.629,1.551l15.506,0l-4.652,1.551c-2.067,0 -6.202,0.517 -12.404,1.551l-3.101,0l3.101,0c11.371,-1.034 34.629,-6.719 69.775,-17.056c8.27,-2.067 17.056,-4.652 26.359,-7.753l23.258,-9.303l-23.258,10.854c88.898,-44.449 140.066,-73.393 153.505,-86.831l-10.854,7.753l3.101,-1.551c2.067,0 4.652,-1.551 7.753,-4.652l7.753,-6.202c53.752,-43.415 91.483,-80.112 113.19,-110.089c1.034,-2.067 -0.517,0 -4.652,6.202l4.652,-7.753c84.763,-133.347 137.999,-231.032 159.707,-293.054c15.506,-43.415 43.415,-74.943 83.73,-94.584c25.843,-12.404 52.719,-18.607 80.629,-18.607c13.438,0 26.876,1.551 40.314,4.652c44.449,12.404 75.977,37.73 94.584,75.977c12.404,26.876 18.607,54.269 18.607,82.179c0,46.517 -16.022,106.988 -48.067,181.414c-42.382,97.168 -117.583,202.605 -225.605,316.312c-108.022,113.707 -232.841,196.92 -374.458,249.639c-76.494,28.944 -155.055,43.415 -235.684,43.415Z" style="fill:url(#_Linear4);fill-rule:nonzero;"/><path d="M8636.664,4336.163c-35.146,0 -82.954,-5.427 -143.426,-16.281c-60.471,-10.854 -126.111,-43.157 -196.92,-96.909c-70.808,-53.752 -127.404,-120.426 -169.785,-200.021c-38.247,-70.292 -57.37,-146.269 -57.37,-227.931c0,-97.168 26.876,-190.718 80.629,-280.65c46.517,-76.494 110.089,-135.932 190.718,-178.313c25.843,-13.438 51.685,-20.157 77.528,-20.157c58.921,0 105.437,27.393 139.55,82.179c13.438,24.809 20.157,50.134 20.157,75.977c0,63.056 -27.393,110.089 -82.179,141.1l-26.359,15.506c-3.101,2.067 -5.685,3.876 -7.753,5.427c-2.067,1.551 -3.101,2.843 -3.101,3.876c0,-1.034 1.292,-2.326 3.876,-3.876c2.584,-1.551 7.494,-5.944 14.73,-13.18c-4.135,4.135 -9.045,8.528 -14.73,13.18c-5.685,4.652 -11.112,10.079 -16.281,16.281c-1.034,0 -2.067,1.034 -3.101,3.101l-13.955,15.506l0,-1.551l12.404,-15.506c-5.169,5.169 -7.753,9.303 -7.753,12.404c-15.506,21.708 -25.843,38.764 -31.011,51.168l10.854,-23.258c-5.169,8.27 -7.753,14.989 -7.753,20.157c-10.337,25.843 -15.506,47.033 -15.506,63.573l1.551,-6.202l0,-9.303c-1.034,2.067 -1.551,12.921 -1.551,32.562l0,31.011c-1.034,-1.034 -1.551,-5.169 -1.551,-12.404l-1.551,-7.753c1.034,0 1.551,0.258 1.551,0.775c0,0.517 0.775,3.101 2.326,7.753c1.551,4.652 2.843,10.854 3.876,18.607c1.034,7.753 3.101,15.764 6.202,24.034c0,1.034 0.258,2.843 0.775,5.427c0.517,2.584 2.326,5.427 5.427,8.528l0,3.101l-1.551,-3.101c-1.034,-1.034 -2.326,-3.876 -3.876,-8.528c-1.551,-4.652 -2.326,-7.494 -2.326,-8.528l0,-1.551l1.551,4.652c5.169,10.337 7.753,16.539 7.753,18.607c9.303,15.506 15.506,26.359 18.607,32.562c3.101,6.202 5.685,10.337 7.753,12.404l-4.652,-6.202c-5.169,-7.236 -7.753,-11.371 -7.753,-12.404l18.607,21.708c10.337,13.438 19.123,23.258 26.359,29.46c3.101,2.067 5.685,4.135 7.753,6.202c2.067,2.067 3.618,3.36 4.652,3.876c1.034,0.517 3.101,1.809 6.202,3.876c0,-1.034 -0.517,-1.809 -1.551,-2.326c-1.034,-0.517 -7.753,-4.91 -20.157,-13.18c33.078,21.708 60.471,38.764 82.179,51.168l-21.708,-12.404l18.607,7.753c11.371,6.202 34.112,12.404 68.224,18.607c-6.202,0 -11.371,-1.034 -15.506,-3.101l-9.303,0l4.652,-1.551l6.202,1.551l9.303,0c3.101,1.034 22.225,1.551 57.37,1.551c4.135,-1.034 10.337,-1.551 18.607,-1.551l-23.258,3.101c4.135,-1.034 7.236,-1.809 9.303,-2.326c2.067,-0.517 4.393,-0.775 6.977,-0.775c2.584,0 16.281,-3.101 41.09,-9.303c18.607,-7.236 33.595,-12.404 44.966,-15.506c-9.303,2.067 -14.989,3.618 -17.056,4.652l-3.101,1.551l0,1.551l9.303,-3.101l23.258,-12.404c14.472,-7.236 28.944,-15.506 43.415,-24.809l7.753,-4.652l0,-1.551c-9.303,6.202 -14.472,9.82 -15.506,10.854c-1.034,1.034 -1.551,2.067 -1.551,3.101l4.652,-6.202c10.337,-5.169 25.843,-18.09 46.517,-38.764c17.573,-22.741 28.944,-35.663 34.112,-38.764l-13.955,18.607l23.258,-34.112c24.809,-35.146 47.55,-76.494 68.224,-124.044l4.652,-9.303c0,3.101 -0.517,5.427 -1.551,6.977c-1.034,1.551 -3.101,5.427 -6.202,11.629c0,-3.101 4.135,-13.438 12.404,-31.011c16.539,-38.247 33.595,-85.797 51.168,-142.651c21.708,-65.123 32.562,-108.022 32.562,-128.696l6.202,-21.708c1.034,0 1.551,1.551 1.551,4.652l-6.202,13.955c3.101,-5.169 4.652,-11.888 4.652,-20.157l1.551,-63.573c0,-9.303 -0.517,-18.09 -1.551,-26.359l0,-17.056l1.551,4.652l0,15.506l-1.551,-12.404l-12.404,-52.719c-4.135,-7.236 -6.719,-14.472 -7.753,-21.708l9.303,21.708l-4.652,-7.753c-12.404,-28.944 -22.225,-47.033 -29.46,-54.269c-3.101,-9.303 -6.719,-13.955 -10.854,-13.955c0,5.169 5.169,11.371 15.506,18.607c-6.202,-5.169 -11.629,-10.854 -16.281,-17.056c-4.652,-6.202 -8.27,-10.854 -10.854,-13.955c-2.584,-3.101 -5.169,-5.427 -7.753,-6.977c-2.584,-1.551 -4.91,-3.876 -6.977,-6.977l18.607,18.607c1.034,0 1.551,-0.517 1.551,-1.551l-1.551,-3.101c-1.034,-1.034 -3.101,-2.326 -6.202,-3.876c-3.101,-1.551 -6.977,-4.135 -11.629,-7.753c-4.652,-3.618 -9.82,-7.494 -15.506,-11.629c-5.685,-4.135 -11.629,-6.202 -17.831,-6.202l4.652,0c1.034,1.034 3.876,2.584 8.528,4.652c4.652,2.067 7.753,3.101 9.303,3.101c1.551,0 2.326,0.517 2.326,1.551l0,-1.551c-1.034,0 -3.36,-0.258 -6.977,-0.775c-3.618,-0.517 -6.719,-1.292 -9.303,-2.326c-2.584,-1.034 -6.202,-2.326 -10.854,-3.876c-4.652,-1.551 -10.079,-2.843 -16.281,-3.876l12.404,1.551l-31.011,0l21.708,-1.551l-10.854,1.551l-9.303,3.101l13.955,-7.753l3.101,0l-3.101,1.551c-3.101,2.067 -6.977,4.135 -11.629,6.202c-4.652,2.067 -6.977,3.618 -6.977,4.652c0,1.034 1.034,1.551 3.101,1.551c6.202,0 11.371,-5.169 15.506,-15.506l-12.404,12.404l17.056,-21.708c-2.067,2.067 -3.876,4.393 -5.427,6.977c-1.551,2.584 -2.584,4.393 -3.101,5.427c-0.517,1.034 -1.292,2.067 -2.326,3.101c-1.034,1.034 -2.067,3.101 -3.101,6.202c-1.034,3.101 -2.584,5.685 -4.652,7.753c9.303,-10.337 13.955,-18.09 13.955,-23.258c0,-1.034 -0.517,-1.551 -1.551,-1.551c-2.067,0 -4.652,7.753 -7.753,23.258c-3.101,9.303 -4.652,14.989 -4.652,17.056l0,1.551l3.101,0c1.034,0 1.551,-4.652 1.551,-13.955l-1.551,-12.404c1.034,2.067 1.551,4.652 1.551,7.753c0,15.506 -0.517,26.876 -1.551,34.112l-3.101,-24.809c2.067,6.202 3.36,11.629 3.876,16.281c0.517,4.652 1.292,8.27 2.326,10.854c1.034,2.584 1.809,5.427 2.326,8.528c0.517,3.101 1.292,5.169 2.326,6.202c-1.034,-1.034 -2.067,-3.36 -3.101,-6.977c-1.034,-3.618 -1.809,-6.202 -2.326,-7.753c-0.517,-1.551 -1.292,-2.326 -2.326,-2.326l3.101,1.551l15.506,31.011c11.371,14.472 17.056,23.775 17.056,27.91l-12.404,-17.056c7.236,8.27 10.854,12.663 10.854,13.18c0,0.517 0.517,0.775 1.551,0.775l0,1.551c20.674,23.775 41.865,44.449 63.573,62.022c9.303,6.202 17.573,13.438 24.809,21.708c-8.27,-11.371 -13.955,-17.056 -17.056,-17.056l0,3.101c4.135,4.135 8.528,7.753 13.18,10.854c4.652,3.101 9.045,6.202 13.18,9.303c74.426,53.752 131.797,87.348 172.111,100.786l10.854,4.652c0,-1.034 -7.753,-4.135 -23.258,-9.303c4.135,1.034 10.337,3.618 18.607,7.753c50.651,17.573 93.55,30.494 128.696,38.764l27.91,4.652l6.202,1.551c-6.202,0 -10.595,-0.258 -13.18,-0.775c-2.584,-0.517 -4.393,-1.292 -5.427,-2.326l44.966,4.652c39.281,0 69.258,-0.517 89.932,-1.551l-17.056,1.551c15.506,0 40.314,-5.685 74.426,-17.056c5.169,-1.034 9.562,-2.326 13.18,-3.876c3.618,-1.551 7.494,-2.843 11.629,-3.876c4.135,-1.034 6.202,-2.067 6.202,-3.101c0,-1.034 -0.517,-1.551 -1.551,-1.551c-5.169,0 -11.371,3.618 -18.607,10.854c7.236,-5.169 16.539,-9.82 27.91,-13.955l15.506,-7.753c25.843,-12.404 51.168,-18.607 75.977,-18.607c59.955,0 106.988,27.393 141.1,82.179c13.438,24.809 20.157,50.134 20.157,75.977c0,62.022 -27.393,109.055 -82.179,141.1c-100.269,52.719 -210.875,79.078 -331.818,79.078c-164.358,0 -327.683,-50.134 -489.974,-150.403c-207.774,-123.01 -325.099,-270.313 -351.975,-441.907c-2.067,-17.573 -3.101,-35.146 -3.101,-52.719c0,-74.426 21.708,-143.684 65.123,-207.774c72.359,-86.831 159.19,-130.246 260.493,-130.246c6.202,0 38.764,1.551 97.685,4.652c58.921,3.101 129.213,45.483 210.875,127.145c101.303,106.471 151.954,242.403 151.954,407.795c0,108.539 -25.843,232.066 -77.528,370.582c-28.944,84.763 -65.123,165.909 -108.539,243.436c-95.1,166.426 -234.133,275.998 -417.098,328.717c-49.618,12.404 -99.752,18.607 -150.403,18.607Z" style="fill:url(#_Linear5);fill-rule:nonzero;"/></g><defs><linearGradient id="_Linear1" x1="0" y1="0" x2="1" y2="0" gradientUnits="userSpaceOnUse" gradientTransform="matrix(7631.811399,0,0,7631.811399,2231.338395,3023.622047)"><stop offset="0" style="stop-color:#008098;stop-opacity:1"/><stop offset="0.12" style="stop-color:#d2dd00;stop-opacity:1"/><stop offset="0.35" style="stop-color:#ff8c00;stop-opacity:1"/><stop offset="0.48" style="stop-color:#ff3339;stop-opacity:1"/><stop offset="0.67" style="stop-color:#6f63b3;stop-opacity:1"/><stop offset="0.84" style="stop-color:#0099d3;stop-opacity:1"/><stop offset="1" style="stop-color:#3769b8;stop-opacity:1"/></linearGradient><linearGradient id="_Linear2" x1="0" y1="0" x2="1" y2="0" gradientUnits="userSpaceOnUse" gradientTransform="matrix(7631.811399,0,0,7631.811399,2231.338395,3023.622047)"><stop offset="0" style="stop-color:#008098;stop-opacity:1"/><stop offset="0.12" style="stop-color:#d2dd00;stop-opacity:1"/><stop offset="0.35" style="stop-color:#ff8c00;stop-opacity:1"/><stop offset="0.48" style="stop-color:#ff3339;stop-opacity:1"/><stop offset="0.67" style="stop-color:#6f63b3;stop-opacity:1"/><stop offset="0.84" style="stop-color:#0099d3;stop-opacity:1"/><stop offset="1" style="stop-color:#3769b8;stop-opacity:1"/></linearGradient><linearGradient id="_Linear3" x1="0" y1="0" x2="1" y2="0" gradientUnits="userSpaceOnUse" gradientTransform="matrix(7631.811399,0,0,7631.811399,2231.338395,3023.622047)"><stop offset="0" style="stop-color:#008098;stop-opacity:1"/><stop offset="0.12" style="stop-color:#d2dd00;stop-opacity:1"/><stop offset="0.35" style="stop-color:#ff8c00;stop-opacity:1"/><stop offset="0.48" style="stop-color:#ff3339;stop-opacity:1"/><stop offset="0.67" style="stop-color:#6f63b3;stop-opacity:1"/><stop offset="0.84" style="stop-color:#0099d3;stop-opacity:1"/><stop offset="1" style="stop-color:#3769b8;stop-opacity:1"/></linearGradient><linearGradient id="_Linear4" x1="0" y1="0" x2="1" y2="0" gradientUnits="userSpaceOnUse" gradientTransform="matrix(7631.811399,0,0,7631.811399,2231.338395,3023.622047)"><stop offset="0" style="stop-color:#008098;stop-opacity:1"/><stop offset="0.12" style="stop-color:#d2dd00;stop-opacity:1"/><stop offset="0.35" style="stop-color:#ff8c00;stop-opacity:1"/><stop offset="0.48" style="stop-color:#ff3339;stop-opacity:1"/><stop offset="0.67" style="stop-color:#6f63b3;stop-opacity:1"/><stop offset="0.84" style="stop-color:#0099d3;stop-opacity:1"/><stop offset="1" style="stop-color:#3769b8;stop-opacity:1"/></linearGradient><linearGradient id="_Linear5" x1="0" y1="0" x2="1" y2="0" gradientUnits="userSpaceOnUse" gradientTransform="matrix(7631.811399,0,0,7631.811399,2231.338395,3023.622047)"><stop offset="0" style="stop-color:#008098;stop-opacity:1"/><stop offset="0.12" style="stop-color:#d2dd00;stop-opacity:1"/><stop offset="0.35" style="stop-color:#ff8c00;stop-opacity:1"/><stop offset="0.48" style="stop-color:#ff3339;stop-opacity:1"/><stop offset="0.67" style="stop-color:#6f63b3;stop-opacity:1"/><stop offset="0.84" style="stop-color:#0099d3;stop-opacity:1"/><stop offset="1" style="stop-color:#3769b8;stop-opacity:1"/></linearGradient></defs></svg>
