<?xml version="1.0" encoding="UTF-8" standalone="no"?>
<!DOCTYPE svg PUBLIC "-//W3C//DTD SVG 1.1//EN" "http://www.w3.org/Graphics/SVG/1.1/DTD/svg11.dtd">
<svg width="100%" height="100%" viewBox="0 0 201 196" version="1.1" xmlns="http://www.w3.org/2000/svg" xmlns:xlink="http://www.w3.org/1999/xlink" xml:space="preserve" xmlns:serif="http://www.serif.com/" style="fill-rule:evenodd;clip-rule:evenodd;stroke-linejoin:round;stroke-miterlimit:2;">
    <g transform="matrix(1,0,0,1,-5054.05,-1928.54)">
        <g id="ArtBoard7" transform="matrix(0.0684121,0,0,0.088401,4706.75,1756.34)">
            <rect x="5076.65" y="1948.01" width="2929.35" height="2213.83" style="fill:none;"/>
            <g transform="matrix(109.8,0,0,84.9722,6511.18,3058.18)">
                <g transform="matrix(1,0,0,1,-12,-12)">
                    <clipPath id="_clip1">
                        <rect x="0" y="0" width="24" height="24"/>
                    </clipPath>
                    <g clip-path="url(#_clip1)">
                        <g transform="matrix(1,0,0,1,9.77716e-05,1.67896e-05)">
                            <path d="M7.03,0.084C5.753,0.144 4.881,0.348 4.119,0.647C3.33,0.955 2.662,1.367 1.996,2.035C1.331,2.703 0.921,3.372 0.616,4.162C0.321,4.926 0.12,5.799 0.064,7.076C0.008,8.354 -0.005,8.764 0.001,12.023C0.008,15.282 0.022,15.69 0.084,16.97C0.145,18.247 0.348,19.119 0.647,19.881C0.955,20.67 1.367,21.338 2.035,22.004C2.703,22.669 3.372,23.078 4.164,23.384C4.927,23.679 5.8,23.88 7.077,23.936C8.355,23.992 8.766,24.005 12.024,23.999C15.281,23.992 15.692,23.978 16.971,23.917C18.251,23.856 19.118,23.652 19.881,23.354C20.67,23.045 21.339,22.634 22.004,21.966C22.669,21.298 23.078,20.628 23.383,19.837C23.679,19.074 23.88,18.201 23.935,16.925C23.991,15.644 24.005,15.235 23.998,11.977C23.992,8.719 23.977,8.31 23.917,7.03C23.856,5.751 23.653,4.882 23.353,4.119C23.045,3.33 22.633,2.662 21.966,1.996C21.298,1.33 20.628,0.921 19.838,0.617C19.074,0.321 18.202,0.12 16.924,0.065C15.647,0.009 15.236,-0.005 11.977,0.001C8.718,0.008 8.31,0.021 7.03,0.084M7.17,21.777C6,21.726 5.365,21.532 4.942,21.369C4.381,21.153 3.982,20.892 3.56,20.474C3.138,20.056 2.879,19.656 2.66,19.096C2.495,18.673 2.297,18.038 2.243,16.868C2.183,15.604 2.171,15.224 2.164,12.02C2.157,8.816 2.169,8.437 2.224,7.172C2.274,6.003 2.47,5.367 2.632,4.944C2.848,4.383 3.109,3.984 3.527,3.562C3.946,3.141 4.346,2.881 4.906,2.662C5.329,2.497 5.963,2.301 7.133,2.245C8.398,2.185 8.777,2.173 11.981,2.166C15.184,2.159 15.564,2.171 16.83,2.227C17.999,2.277 18.635,2.471 19.058,2.635C19.619,2.851 20.018,3.11 20.44,3.53C20.861,3.949 21.121,4.347 21.34,4.908C21.505,5.33 21.702,5.964 21.757,7.135C21.817,8.4 21.831,8.78 21.837,11.983C21.842,15.186 21.831,15.566 21.776,16.831C21.725,18.001 21.531,18.636 21.368,19.06C21.152,19.621 20.891,20.02 20.472,20.441C20.053,20.863 19.654,21.123 19.094,21.341C18.672,21.506 18.036,21.703 16.868,21.759C15.602,21.818 15.223,21.831 12.019,21.838C8.814,21.845 8.436,21.832 7.17,21.777M16.953,5.586C16.954,6.375 17.604,7.024 18.393,7.024C19.183,7.024 19.833,6.374 19.833,5.584C19.833,4.794 19.183,4.144 18.393,4.144C18.392,4.144 18.391,4.144 18.39,4.144C17.6,4.146 16.952,4.797 16.953,5.586M5.839,12.012C5.845,15.415 8.609,18.168 12.012,18.161C15.414,18.155 18.169,15.391 18.162,11.988C18.156,8.585 15.391,5.831 11.988,5.838C8.585,5.845 5.832,8.609 5.838,12.012M8,12.008C8,12.005 8,12.002 8,12C8,9.805 9.806,8 12,8C14.194,8 16,9.805 16,12C16,14.191 14.199,15.995 12.008,16C12.005,16 12.002,16 12,16C9.808,16 8.004,14.199 8,12.008" style="fill:rgb(136,136,136);fill-rule:nonzero;"/>
                        </g>
                    </g>
                </g>
            </g>
        </g>
    </g>
</svg>
